<?xml version="1.0" encoding="UTF-8" standalone="no"?>
<svg width="60px" height="53px" viewBox="0 0 60 53" version="1.1" xmlns="http://www.w3.org/2000/svg" xmlns:xlink="http://www.w3.org/1999/xlink">
    <!-- Generator: Sketch 39.1 (31720) - http://www.bohemiancoding.com/sketch -->
    <title>Page 1</title>
    <desc>Created with Sketch.</desc>
    <defs></defs>
    <g id="Desktop" stroke="none" stroke-width="1" fill="none" fill-rule="evenodd">
        <g id="Educanada-World" transform="translate(-196.000000, -2199.000000)" fill="#FFFFFF">
            <g id="20-razões-copy-2" transform="translate(0.000000, 1347.000000)">
                <g id="Item5" transform="translate(176.000000, 828.000000)">
                    <g id="Page-1" transform="translate(20.000000, 24.000000)">
                        <path d="M50.4391154,48.7846681 L9.02988462,48.7846681 C5.90296154,48.7846681 3.35988462,46.2512638 3.35988462,43.1376468 L3.35988462,30.2304979 L10.0845,30.2304979 C11.0121923,30.2304979 11.7645,29.4802426 11.7645,28.5576468 C11.7645,27.6339021 11.0121923,26.8836468 10.0845,26.8836468 L3.35988462,26.8836468 L3.35988462,20.1393915 C3.35988462,17.0257745 5.90296154,14.4935191 9.02988462,14.4935191 L50.4391154,14.4935191 C53.5648846,14.4935191 56.1091154,17.0257745 56.1091154,20.1393915 L56.1091154,26.9054766 C56.0387308,26.8962851 55.9683462,26.8836468 55.8956538,26.8836468 L48.5375769,26.8836468 C47.6087308,26.8836468 46.8575769,27.6339021 46.8575769,28.5576468 C46.8575769,29.4802426 47.6087308,30.2304979 48.5375769,30.2304979 L55.8956538,30.2304979 C55.9683462,30.2304979 56.0387308,30.2178596 56.1091154,30.2086681 L56.1091154,43.1376468 C56.1091154,46.2512638 53.5648846,48.7846681 50.4391154,48.7846681 L50.4391154,48.7846681 Z M22.6279615,7.10585957 C22.6279615,5.14922128 24.9218077,3.49475319 27.6356538,3.49475319 L31.8333462,3.49475319 C34.5471923,3.49475319 36.8387308,5.14922128 36.8387308,7.10585957 L36.8387308,11.147817 L22.6279615,11.147817 L22.6279615,7.10585957 Z M50.4391154,11.147817 L40.1987308,11.147817 L40.1987308,7.10585957 C40.1987308,3.2695617 36.4464231,0.149051064 31.8333462,0.149051064 L27.6356538,0.149051064 C23.0225769,0.149051064 19.2679615,3.2695617 19.2679615,7.10585957 L19.2679615,11.147817 L9.02988462,11.147817 C4.05103846,11.147817 -0.000115384615,15.1817319 -0.000115384615,20.1393915 L-0.000115384615,43.1376468 C-0.000115384615,48.0953064 4.05103846,52.1303702 9.02988462,52.1303702 L50.4391154,52.1303702 C55.4179615,52.1303702 59.4691154,48.0953064 59.4691154,43.1376468 L59.4691154,20.1393915 C59.4691154,15.1817319 55.4179615,11.147817 50.4391154,11.147817 L50.4391154,11.147817 Z" id="Fill-1"></path>
                        <path d="M15.3515769,24.7737404 C14.4238846,24.7737404 13.6715769,25.5228468 13.6715769,26.4465915 L13.6715769,30.9044638 C13.6715769,31.8282085 14.4238846,32.5773149 15.3515769,32.5773149 C16.2792692,32.5773149 17.0315769,31.8282085 17.0315769,30.9044638 L17.0315769,26.4465915 C17.0315769,25.5228468 16.2792692,24.7737404 15.3515769,24.7737404" id="Fill-4"></path>
                        <path d="M43.2698077,24.7737404 C42.3421154,24.7737404 41.5898077,25.5228468 41.5898077,26.4465915 L41.5898077,30.9044638 C41.5898077,31.8282085 42.3421154,32.5773149 43.2698077,32.5773149 C44.1975,32.5773149 44.9498077,31.8282085 44.9498077,30.9044638 L44.9498077,26.4465915 C44.9498077,25.5228468 44.1975,24.7737404 43.2698077,24.7737404" id="Fill-6"></path>
                        <path d="M38.2487308,26.8842213 L38.0006538,26.8842213 L20.6191154,26.8842213 L20.3721923,26.8842213 C19.4445,26.8842213 18.6921923,27.6333277 18.6921923,28.5570723 C18.6921923,29.480817 19.4445,30.2299234 20.3721923,30.2299234 L20.6191154,30.2299234 L38.0006538,30.2299234 L38.2487308,30.2299234 C39.1764231,30.2299234 39.9287308,29.480817 39.9287308,28.5570723 C39.9287308,27.6333277 39.1764231,26.8842213 38.2487308,26.8842213" id="Fill-8"></path>
                    </g>
                </g>
            </g>
        </g>
    </g>
</svg>