<?xml version="1.0" encoding="UTF-8" standalone="no"?>
<svg width="57px" height="62px" viewBox="0 0 57 62" version="1.1" xmlns="http://www.w3.org/2000/svg" xmlns:xlink="http://www.w3.org/1999/xlink">
    <!-- Generator: Sketch 39.1 (31720) - http://www.bohemiancoding.com/sketch -->
    <title>Page 1</title>
    <desc>Created with Sketch.</desc>
    <defs></defs>
    <g id="Desktop" stroke="none" stroke-width="1" fill="none" fill-rule="evenodd">
        <g id="Educanada-World" transform="translate(-780.000000, -2347.000000)" fill="#FFFFFF">
            <g id="20-razões-copy-2" transform="translate(0.000000, 1347.000000)">
                <g id="Item-8" transform="translate(758.000000, 975.000000)">
                    <g id="Page-1" transform="translate(22.000000, 25.000000)">
                        <path d="M18.8450164,45.873 C17.4920164,46.023 16.1280164,46.175 14.7110164,46.333 C14.6060164,46.345 14.5010164,46.351 14.3960164,46.351 C13.6320164,46.351 12.8990164,46.042 12.3990164,45.496 C11.8280164,44.877 11.6340164,44.034 11.8800164,43.253 L12.7780164,40.409 L0.925016445,31.115 C0.252016445,30.587 -0.0889835552,29.781 0.0200164448,28.972 C0.129016445,28.162 0.673016445,27.458 1.46501644,27.098 L3.06401644,26.372 L3.03701644,26.274 L1.16101644,19.692 C0.929016445,18.876 1.17201644,18.008 1.80501644,17.399 C2.30501644,16.919 2.99001644,16.655 3.69501644,16.655 C3.88301644,16.655 4.07101644,16.674 4.25901644,16.712 L9.95601644,17.868 L10.4920164,16.055 C10.7490164,15.19 11.5020164,14.528 12.4490164,14.332 C12.6400164,14.293 12.8310164,14.273 13.0210164,14.273 C13.7780164,14.273 14.5110164,14.577 15.0150164,15.121 L17.1260164,17.403 L15.6000164,9.583 C15.4210164,8.668 15.8270164,7.739 16.6430164,7.193 C17.0990164,6.889 17.6380164,6.734 18.1800164,6.734 C18.6080164,6.734 19.0370164,6.83 19.4280164,7.026 L21.9940164,8.309 L25.8770164,1.316 C26.3260164,0.509 27.2260164,0 28.2090164,0 L28.2100164,0 C29.1930164,0 30.0930164,0.508 30.5420164,1.316 L34.4290164,8.309 L36.9950164,7.026 C37.3860164,6.83 37.8150164,6.734 38.2430164,6.734 C38.7840164,6.734 39.3230164,6.889 39.7800164,7.193 C40.5950164,7.739 41.0010164,8.668 40.8230164,9.583 L39.2970164,17.402 L41.4080164,15.121 C41.9120164,14.577 42.6430164,14.273 43.4000164,14.273 C43.5910164,14.273 43.7830164,14.293 43.9730164,14.332 C44.9210164,14.528 45.6740164,15.19 45.9290164,16.055 L46.4660164,17.869 L52.1640164,16.712 C52.3500164,16.674 52.5390164,16.655 52.7260164,16.655 C53.4320164,16.655 54.1170164,16.919 54.6170164,17.399 C55.2490164,18.008 55.4940164,18.876 55.2610164,19.691 L53.3920164,26.253 L53.3580164,26.373 L54.9570164,27.098 C55.7500164,27.458 56.2930164,28.162 56.4030164,28.972 C56.5110164,29.781 56.1720164,30.587 55.4980164,31.115 L43.6450164,40.408 L44.5420164,43.254 C44.7880164,44.035 44.5930164,44.877 44.0230164,45.497 C43.5220164,46.042 42.7890164,46.351 42.0250164,46.351 C41.9200164,46.351 41.8160164,46.345 41.7110164,46.333 C40.3550164,46.182 39.0510164,46.037 37.7570164,45.893 L37.7570164,43.455 C39.1530164,43.61 40.5600164,43.768 42.0250164,43.93 L40.9500164,40.521 C40.7760164,39.928 41.0220164,39.272 41.5090164,38.908 L53.8010164,29.27 L51.2550164,28.116 C50.1350164,27.729 50.4480164,27.123 50.8510164,25.658 L52.7260164,19.076 L45.5860164,20.525 L45.3810164,20.54 C44.7980164,20.54 44.4120164,20.159 44.3180164,19.793 L43.4000164,16.693 L37.7540164,22.796 C37.4350164,23.183 36.9870164,23.417 36.5940164,23.417 C35.9960164,23.417 35.5250164,22.877 35.8310164,21.514 L38.2430164,9.154 L35.0070164,10.772 C34.5900164,10.995 34.1740164,11.134 33.7970164,11.134 C33.3500164,11.134 32.9570164,10.94 32.6820164,10.467 L28.2100164,2.421 L23.7410164,10.467 C23.4660164,10.94 23.0730164,11.134 22.6270164,11.134 C22.2490164,11.134 21.8320164,10.995 21.4160164,10.772 L18.1800164,9.154 L20.5920164,21.514 C20.8980164,22.876 20.4270164,23.417 19.8290164,23.417 C19.4360164,23.417 18.9880164,23.183 18.6680164,22.796 L13.0210164,16.693 L12.1040164,19.793 C12.0100164,20.158 11.6250164,20.54 11.0420164,20.54 L10.8370164,20.525 L3.69601644,19.076 L5.57201644,25.658 C5.97201644,27.123 6.28601644,27.729 5.16701644,28.116 L2.62201644,29.27 L14.9130164,38.908 C15.4000164,39.273 15.6460164,39.928 15.4730164,40.521 L14.3970164,43.93 C15.9250164,43.76 17.3900164,43.597 18.8450164,43.436 L27.8350164,42.267 C27.8350164,42.267 30.0130164,41.928 29.9280164,44.239 C29.8420164,46.551 29.8980164,58.565 29.8980164,60.064 C29.8980164,61.561 27.3400164,61.752 27.3400164,59.74 C27.3400164,57.728 27.3910164,44.653 27.3910164,44.653 L18.8450164,45.873 Z" id="Fill-1"></path>
                    </g>
                </g>
            </g>
        </g>
    </g>
</svg>