<?xml version="1.0" encoding="UTF-8" standalone="no"?>
<svg width="26px" height="28px" viewBox="0 0 26 28" version="1.1" xmlns="http://www.w3.org/2000/svg" xmlns:xlink="http://www.w3.org/1999/xlink">
    <!-- Generator: Sketch 39.1 (31720) - http://www.bohemiancoding.com/sketch -->
    <title>Page 1</title>
    <desc>Created with Sketch.</desc>
    <defs></defs>
    <g id="Desktop" stroke="none" stroke-width="1" fill="none" fill-rule="evenodd">
        <g id="Educanada-World" transform="translate(-204.000000, -7658.000000)" fill="#FF0000">
            <g id="Why-Canada" transform="translate(0.000000, 4364.000000)">
                <g id="Images" transform="translate(175.000000, 3170.000000)">
                    <g id="Group-16">
                        <g id="Group-5" transform="translate(19.000000, 116.000000)">
                            <g id="Page-1" transform="translate(10.000000, 8.000000)">
                                <path d="M25.6468979,26.0780373 L14.6057489,1.85330036 C14.0741319,0.689082182 13.2448979,0.562536727 12.912983,0.562536727 L12.9113234,0.562536727 C12.5783021,0.562536727 11.7501745,0.688519758 11.2174511,1.84992582 L0.0971957447,26.0757876 C-0.144548936,26.6033416 0.079493617,27.2304446 0.598940426,27.4767864 C1.11894043,27.7236907 1.73464255,27.4953464 1.97694043,26.9672301 L12.910217,3.14800097 L23.7654936,26.9644179 C23.9408553,27.3491161 24.315366,27.5757731 24.7064723,27.5757731 C24.8525149,27.5757731 25.0013234,27.5442773 25.141834,27.4779113 C25.661834,27.2332567 25.8880894,26.6061537 25.6468979,26.0780373" id="Fill-1"></path>
                                <path d="M17.4587234,14.7847835 C17.0244681,14.2870381 16.4192766,14.0063884 15.7891915,14.0238235 C15.1629787,14.0378841 14.5666383,14.3427181 14.1545106,14.8595859 L12.9397021,16.3831932 C12.9314043,16.3933168 12.924766,16.4011908 12.919234,16.406815 C12.9137021,16.4011908 12.9065106,16.3933168 12.898766,16.3831932 L11.7149362,14.851712 C11.3055745,14.3224708 10.7108936,14.0114502 10.0835745,14.0002017 C9.46234043,13.9900781 8.85106383,14.276352 8.424,14.7892829 L7.02221277,16.470369 C6.65157447,16.9146841 6.70578723,17.580032 7.14225532,17.9562938 C7.5792766,18.3336805 8.23370213,18.2780005 8.60378723,17.8342478 L10.0061277,16.1525993 C10.0249362,16.1295399 10.0409787,16.1166041 10.0409787,16.1104175 C10.050383,16.1171665 10.0658723,16.1306647 10.0846809,16.154849 L11.2690638,17.6863302 C11.6806383,18.2189459 12.2764255,18.5271544 12.9042979,18.5316538 L12.9181277,18.5316538 C13.5404681,18.5316538 14.1351489,18.2324441 14.5511489,17.7105144 L15.7654043,16.1874696 C15.8013617,16.1424756 15.8284681,16.132352 15.8351064,16.132352 C15.8373191,16.1317896 15.8682979,16.1396635 15.9064681,16.1835326 L17.1539149,17.6154647 C17.5339574,18.0513435 18.188383,18.0912756 18.6176596,17.706015 C19.046383,17.3196296 19.0862128,16.6537193 18.7067234,16.2178405 L17.4587234,14.7847835 Z" id="Fill-4"></path>
                            </g>
                        </g>
                    </g>
                </g>
            </g>
        </g>
    </g>
</svg>