<?xml version="1.0" encoding="UTF-8" standalone="no"?>
<svg width="30px" height="29px" viewBox="0 0 30 29" version="1.1" xmlns="http://www.w3.org/2000/svg" xmlns:xlink="http://www.w3.org/1999/xlink">
    <!-- Generator: Sketch 39.1 (31720) - http://www.bohemiancoding.com/sketch -->
    <title>Page 1</title>
    <desc>Created with Sketch.</desc>
    <defs></defs>
    <g id="Desktop" stroke="none" stroke-width="1" fill="none" fill-rule="evenodd">
        <g id="Educanada-World" transform="translate(-566.000000, -7823.000000)" fill="#FF0000">
            <g id="Why-Canada" transform="translate(0.000000, 4364.000000)">
                <g id="Images" transform="translate(175.000000, 3170.000000)">
                    <g id="Group-16">
                        <g id="Group-5-Copy-8" transform="translate(383.000000, 281.000000)">
                            <g id="Page-1" transform="translate(8.000000, 8.000000)">
                                <path d="M14.3514677,18.6238483 C13.8453387,18.5895317 13.4175968,18.9636317 13.3817903,19.462915 C13.289371,20.7625983 12.9332419,21.9680317 12.3250161,23.0463483 C11.1008226,25.2155483 9.23743548,26.6423483 6.93324194,27.172565 C6.79872581,27.2034983 6.75566129,27.085565 6.75566129,27.0845983 C6.15420968,24.5925317 6.41501613,22.3256983 7.53033871,20.3469317 C8.08146774,19.3710817 8.84162903,18.513165 9.79001613,17.798315 C10.1896935,17.4971983 10.2695323,16.9287983 9.96759677,16.529565 C9.66566129,16.1303317 9.0971129,16.0515483 8.69743548,16.3521817 C7.54824194,17.2178317 6.62404839,18.2627983 5.9505,19.4580817 C4.62082258,21.814815 4.28937097,24.598815 4.99195161,27.5099317 C5.20582258,28.3924983 6.01098387,28.9889317 6.8955,28.9889317 C7.04308065,28.9889317 7.19259677,28.9724983 7.3421129,28.9376983 C10.1146935,28.2996983 12.4455,26.5234483 13.9048548,23.936165 C14.6461452,22.622465 15.0792097,21.160865 15.1914677,19.5924483 C15.2272742,19.093165 14.8508226,18.659615 14.3514677,18.6238483" id="Fill-1"></path>
                                <path d="M15.5072903,7.30423 C15.9563226,7.52414667 16.4997097,7.33854667 16.7203548,6.89098 C16.7300323,6.87116333 17.5632581,5.21574667 19.0095484,4.44386333 C19.2911613,6.05723 18.5000323,7.73294667 18.4903548,7.75276333 C18.2726129,8.20178 18.4603548,8.74311333 18.9093871,8.96206333 C19.0376129,9.02393 19.1726129,9.05341333 19.3066452,9.05341333 C19.6424516,9.05341333 19.9651935,8.86588 20.1224516,8.54398 C20.1829355,8.42024667 21.5924516,5.47239667 20.4147097,2.88318 C20.2342258,2.48684667 19.794871,2.27611333 19.3758387,2.37713 C16.6066452,3.04461333 15.1516452,5.97071333 15.0906774,6.09493 C14.8719677,6.54394667 15.0582581,7.08431333 15.5072903,7.30423" id="Fill-3"></path>
                                <path d="M5.68054839,17.6954133 C6.17796774,17.64708 6.54087097,17.2053133 6.49393548,16.7084467 C6.44651613,16.2110967 5.997,15.8514967 5.50683871,15.8920967 C5.48506452,15.8930633 3.63667742,16.0511133 2.22183871,15.2246133 C3.44796774,14.1414633 5.28667742,13.9374967 5.31522581,13.9345967 C5.81264516,13.88433 6.17603226,13.44208 6.12764516,12.94473 C6.07925806,12.44738 5.6403871,12.0756967 5.13667742,12.13128 C4.99925806,12.1448133 1.74716129,12.4874967 0.155225806,14.84568 C-0.0881612903,15.2062467 -0.0412258065,15.68813 0.267,15.99408 C1.80474194,17.5233467 4.06103226,17.71813 5.10958065,17.71813 C5.43764516,17.7176467 5.64764516,17.6987967 5.68054839,17.6954133" id="Fill-5"></path>
                                <path d="M19.3541613,20.049295 C18.9114194,20.282745 18.7420645,20.8313283 18.9762581,21.2735783 C18.9859355,21.2929117 19.8264194,22.946395 19.6023871,24.5612117 C18.1381935,23.8400783 17.2527097,22.2247783 17.2348065,22.1919117 C17.000129,21.7511117 16.4533548,21.581945 16.010129,21.8158783 C15.5673871,22.0498117 15.3980323,22.5979117 15.6322258,23.0401617 C15.6965806,23.162445 17.2473871,26.039245 20.0369032,26.6153783 C20.0988387,26.627945 20.1602903,26.6342283 20.2212581,26.6342283 C20.5812581,26.6342283 20.9160968,26.4186617 21.0583548,26.075495 C22.1504516,23.4485783 20.6446452,20.5490617 20.5798065,20.4267783 C20.3460968,19.9845283 19.797871,19.8153617 19.3541613,20.049295" id="Fill-8"></path>
                                <path d="M29.4105484,12.9607283 C27.4929677,10.880945 24.8137742,9.73737833 21.8607097,9.73737833 C21.8447419,9.73737833 21.8282903,9.73737833 21.8118387,9.73786167 C20.3002258,9.74366167 18.8147419,10.090695 17.3960323,10.7688117 C16.9440968,10.9843783 16.7534516,11.5252283 16.9697419,11.977145 C17.1850645,12.428095 17.7265161,12.618045 18.1794194,12.4029617 C19.3537742,11.8418117 20.5779677,11.5547117 21.8195806,11.549395 L21.8621613,11.549395 C24.3361935,11.549395 26.4840968,12.461445 28.0755484,14.1874283 C28.1703871,14.2903783 28.088129,14.3860783 28.0871613,14.387045 C26.2165161,16.1425117 24.1160323,17.0371617 21.8428065,17.0468283 L21.8152258,17.0468283 C20.7018387,17.0468283 19.5889355,16.8109617 18.5065161,16.3450283 C18.0468387,16.1454117 17.5126452,16.359045 17.3147419,16.818695 C17.1168387,17.278345 17.3287742,17.8114617 17.7889355,18.009145 C19.0992581,18.5727117 20.4536129,18.858845 21.8152258,18.858845 C21.8268387,18.858845 21.8389355,18.858845 21.8500645,18.8583617 C24.5587742,18.8477283 27.1445806,17.7578117 29.3287742,15.7084783 C30.1015161,14.9839617 30.1382903,13.7514617 29.4105484,12.9607283" id="Fill-10"></path>
                                <path d="M8.75245161,12.7794783 C8.90293548,12.8737283 9.06987097,12.9191617 9.23535484,12.9191617 C9.53632258,12.9191617 9.831,12.7693283 10.0037419,12.496245 C10.2708387,12.072845 10.1435806,11.513145 9.72019355,11.246345 C8.61793548,10.5527617 7.72180645,9.670195 7.056,8.62377833 C5.71906452,6.52321167 5.33922581,4.20852833 5.9576129,1.93057833 C5.99390323,1.79621167 6.11777419,1.81457833 6.12019355,1.81457833 C8.60293548,2.46031167 10.4803548,3.75902833 11.7006774,5.67592833 C12.302129,6.62036167 12.7003548,7.69432833 12.8847097,8.868345 C12.962129,9.362795 13.4256774,9.70257833 13.9211613,9.62331167 C14.4156774,9.54597833 14.7539032,9.08246167 14.6764839,8.58801167 C14.4534194,7.16652833 13.967129,5.859595 13.2316452,4.70346167 C11.7780968,2.420195 9.47680645,0.815045 6.57648387,0.0615283333 C5.55116129,-0.204788333 4.4876129,0.421128333 4.206,1.45642833 C3.46229032,4.19982833 3.93067742,7.09016167 5.52503226,9.596245 C6.336,10.8703117 7.42180645,11.9413783 8.75245161,12.7794783" id="Fill-12"></path>
                                <path d="M15.4842097,13.0740217 C15.1542097,13.187605 14.9790484,13.5467217 15.0927581,13.876355 C15.2064677,14.2059883 15.5664677,14.380955 15.8959839,14.2673717 C16.2255,14.1537883 16.4011452,13.7946717 16.2874355,13.4650383 C16.1737258,13.135405 15.8142097,12.9604383 15.4842097,13.0740217" id="Fill-14"></path>
                                <path d="M11.5019032,14.445045 C11.1719032,14.5586283 10.9967419,14.917745 11.1104516,15.2473783 C11.2241613,15.5770117 11.5841613,15.7519783 11.9136774,15.638395 C12.2431935,15.5248117 12.4188387,15.165695 12.305129,14.8360617 C12.1914194,14.5064283 11.8319032,14.3314617 11.5019032,14.445045" id="Fill-16"></path>
                                <path d="M14.7375484,12.420265 C14.8067419,12.0785483 14.5860968,11.7455317 14.2444839,11.6759317 C13.9023871,11.606815 13.5685161,11.827215 13.4993226,12.1689317 C13.4296452,12.5106483 13.6502903,12.843665 13.9923871,12.9127817 C14.3344839,12.9823817 14.6683548,12.7619817 14.7375484,12.420265" id="Fill-18"></path>
                                <path d="M13.1535484,17.0360017 C13.4956452,17.1056017 13.8295161,16.8852017 13.8987097,16.543485 C13.9679032,16.2017683 13.7472581,15.8687517 13.4056452,15.7991517 C13.0635484,15.730035 12.7296774,15.950435 12.6604839,16.2921517 C12.5908065,16.6338683 12.8114516,16.966885 13.1535484,17.0360017" id="Fill-20"></path>
                                <path d="M12.5815161,12.4645867 C12.3255484,12.2277533 11.9253871,12.2437033 11.6887742,12.4993867 C11.4516774,12.75507 11.4676452,13.1547867 11.7236129,13.39162 C11.9800645,13.62797 12.3797419,13.6125033 12.6163548,13.3563367 C12.8534516,13.10017 12.8374839,12.70142 12.5815161,12.4645867" id="Fill-22"></path>
                                <path d="M15.674371,15.32099 C15.4184032,15.0841567 15.0182419,15.1001067 14.781629,15.35579 C14.5445323,15.6114733 14.5605,16.01119 14.8164677,16.2480233 C15.0729194,16.4843733 15.4725968,16.4689067 15.7092097,16.21274 C15.9463065,15.9565733 15.9303387,15.5578233 15.674371,15.32099" id="Fill-24"></path>
                            </g>
                        </g>
                    </g>
                </g>
            </g>
        </g>
    </g>
</svg>