<?xml version="1.0" encoding="UTF-8" standalone="no"?>
<svg width="27px" height="30px" viewBox="0 0 27 30" version="1.1" xmlns="http://www.w3.org/2000/svg" xmlns:xlink="http://www.w3.org/1999/xlink">
    <!-- Generator: Sketch 39.1 (31720) - http://www.bohemiancoding.com/sketch -->
    <title>Page 1</title>
    <desc>Created with Sketch.</desc>
    <defs></defs>
    <g id="Desktop" stroke="none" stroke-width="1" fill="none" fill-rule="evenodd">
        <g id="Educanada-World" transform="translate(-204.000000, -7877.000000)" fill="#FF0000">
            <g id="Why-Canada" transform="translate(0.000000, 4364.000000)">
                <g id="Images" transform="translate(175.000000, 3170.000000)">
                    <g id="Group-16">
                        <g id="Group-5-Copy-7" transform="translate(19.000000, 336.000000)">
                            <g id="Page-1" transform="translate(10.000000, 7.000000)">
                                <path d="M17.6837674,17.8414118 C16.6794848,18.2384706 14.9385717,19.7714118 15.5384413,22.7337647 C15.74505,23.7567059 15.4685935,24.7990588 14.7583761,25.6702353 C13.8227674,26.8167059 12.2872891,27.4755294 10.5446152,27.4796471 C8.46678913,27.4755294 6.6824413,26.6896471 5.51968043,25.2637647 C4.49250652,24.0043529 4.08163696,22.4037647 4.39155,20.8731765 C5.1299413,17.2290588 2.71696304,15.6561176 1.33820217,15.3331765 C0.752419565,15.1978824 0.175441304,15.5584706 0.0316369565,16.142 C-0.112167391,16.7261176 0.246463043,17.3190588 0.826963043,17.4702353 C1.27598478,17.5872941 2.70581087,18.1478824 2.24270217,20.4355294 C1.80072391,22.6155294 2.37652826,24.8825882 3.82220217,26.6543529 C5.39935435,28.5878824 7.76655,29.6567059 10.492963,29.6749412 C10.5041152,29.6755294 10.5146804,29.6784706 10.5264196,29.6784706 C10.5322891,29.6784706 10.5381587,29.6778824 10.5440283,29.6778824 C10.5504848,29.6778824 10.5557674,29.6784706 10.5622239,29.6784706 C10.573963,29.6784706 10.5845283,29.6755294 10.5962674,29.6749412 C12.9793109,29.6567059 15.1123109,28.7078824 16.4558543,27.0608235 C17.5740065,25.6902353 18.0230283,23.9537647 17.6872891,22.2972941 C17.32455,20.5055294 18.3077022,19.9672941 18.4878978,19.8861176 C19.0513761,19.6637647 19.3278326,19.0255294 19.105963,18.4608235 C18.8840935,17.8967059 18.2460717,17.6214118 17.6837674,17.8414118" id="Fill-1"></path>
                                <path d="M22.3163804,3.53188235 C22.0229022,3.55364706 21.755837,3.71247059 21.5961848,3.96011765 C21.4365326,4.20776471 21.4024891,4.51658824 21.5040326,4.79423529 C21.6173152,5.10364706 21.7165109,5.53070588 21.5685978,6.18423529 C21.0573587,6.296 20.5965978,6.26482353 20.1469891,6.09188235 C19.8675978,5.98364706 19.5529891,6.01776471 19.3005978,6.18070588 C19.0487935,6.34423529 18.8903152,6.61835294 18.8738804,6.91894118 C18.8374891,7.58717647 18.703663,8.42188235 18.4430543,9.09717647 C17.8420109,8.30894118 17.4411196,7.48894118 17.287337,6.716 C17.030837,5.42423529 17.4317283,4.26835294 18.514663,3.18364706 C19.3868804,2.30952941 20.3042935,1.87835294 21.3021196,1.87835294 C21.5433587,1.87835294 21.7887065,1.90364706 22.039337,1.95364706 C22.807663,2.10717647 23.6235326,2.50717647 24.4077065,3.10541176 C23.8442283,3.32129412 23.1169891,3.47247059 22.3163804,3.53188235 M26.9163587,3.23835294 C26.9163587,2.98894118 26.81775,2.74952941 26.641663,2.57305882 C25.7213152,1.65129412 24.239837,0.474823529 22.4061848,0.108941176 C20.8178804,-0.208117647 19.2959022,0.171882353 17.9511848,1.19423529 C17.0214457,0.463647059 15.8710109,0.0589411765 14.6853587,0.0589411765 C11.7664239,0.0589411765 9.39159783,2.43894118 9.39159783,5.36364706 L9.39159783,16.6183529 C8.04688043,14.9824706 5.93266304,13.5342353 2.62516304,12.5177647 C2.04642391,12.3407059 1.43305435,12.666 1.25579348,13.2465882 C1.07794565,13.8265882 1.40370652,14.4412941 1.98244565,14.6195294 C6.08761957,15.8801176 8.93142391,17.7765882 9.39159783,22.6007059 L9.39159783,25.9171765 C9.39159783,26.566 9.91692391,27.0918824 10.564337,27.0918824 C11.21175,27.0918824 11.7370761,26.566 11.7370761,25.9171765 L11.7370761,23.5848235 C12.2359891,19.3071765 15.0569022,17.5142353 17.4663587,16.7742353 C18.0450978,16.596 18.3702717,15.9812941 18.1930109,15.4012941 C18.01575,14.8212941 17.4035543,14.496 16.8230543,14.6724706 C14.6742065,15.3330588 12.967337,16.446 11.7370761,17.9412941 L11.7370761,5.36364706 C11.7370761,3.73482353 13.0594891,2.40894118 14.6853587,2.40894118 C15.2693804,2.40894118 15.8340326,2.59247059 16.3165109,2.91423529 C15.4577935,4.18717647 15.153163,5.60658824 15.4466413,7.08364706 C15.8117283,8.92188235 16.9856413,10.4065882 17.9059891,11.3283529 C18.0891196,11.5118824 18.3291848,11.6036471 18.56925,11.6036471 C18.8093152,11.6036471 19.0499674,11.5112941 19.2330978,11.3283529 C20.0871196,10.4724706 20.4639457,9.14305882 20.6294674,8.11776471 C21.2710109,8.17129412 21.9360326,8.07776471 22.6345109,7.83188235 C22.903337,7.73658824 23.1146413,7.52482353 23.2091413,7.25541176 C23.455663,6.55070588 23.5566196,5.90364706 23.5125978,5.28011765 C24.5603152,5.10070588 25.8275543,4.71894118 26.6410761,3.90364706 C26.817163,3.72717647 26.9163587,3.48835294 26.9163587,3.23835294" id="Fill-4"></path>
                            </g>
                        </g>
                    </g>
                </g>
            </g>
        </g>
    </g>
</svg>