<?xml version="1.0" encoding="UTF-8" standalone="no"?>
<svg width="26px" height="27px" viewBox="0 0 26 27" version="1.1" xmlns="http://www.w3.org/2000/svg" xmlns:xlink="http://www.w3.org/1999/xlink">
    <!-- Generator: Sketch 39.1 (31720) - http://www.bohemiancoding.com/sketch -->
    <title>Page 1</title>
    <desc>Created with Sketch.</desc>
    <defs></defs>
    <g id="Desktop" stroke="none" stroke-width="1" fill="none" fill-rule="evenodd">
        <g id="Educanada-World" transform="translate(-204.000000, -7823.000000)" fill="#FF0000">
            <g id="Why-Canada" transform="translate(0.000000, 4364.000000)">
                <g id="Images" transform="translate(175.000000, 3170.000000)">
                    <g id="Group-16">
                        <g id="Group-5-Copy-3" transform="translate(19.000000, 281.000000)">
                            <g id="Page-1" transform="translate(10.000000, 8.000000)">
                                <path d="M23.932887,19.3058043 C23.4021478,19.0570596 22.7719304,19.2937404 22.5271913,19.8337404 L21.3464522,22.4424 C20.9722783,23.2702085 18.8120174,24.4243149 16.1447565,24.4243149 L9.32088696,24.4243149 C6.65249565,24.4243149 4.49166957,23.2805489 4.11806087,22.460783 L2.93732174,19.8716553 C2.69145217,19.3316553 2.06010435,19.0972723 1.53049565,19.3477404 C0.999756522,19.597634 0.769147826,20.238166 1.01501739,20.7775915 L2.19575652,23.3661447 C3.14758261,25.4526128 6.57732174,26.5779957 9.32088696,26.5779957 L16.1447565,26.5779957 C18.8900174,26.5779957 22.320887,25.4439957 23.2715826,23.3425915 L24.4523217,20.7339319 C24.6970609,20.1939319 24.4641913,19.5545489 23.932887,19.3058043" id="Fill-1"></path>
                                <path d="M24.5621435,16.2634787 L1.05927391,16.2634787 C0.474273913,16.2634787 5.65217392e-05,16.7454574 5.65217392e-05,17.3406064 C5.65217392e-05,17.9351809 0.474273913,18.4171596 1.05927391,18.4171596 L24.5621435,18.4171596 C25.1471435,18.4171596 25.6213609,17.9351809 25.6213609,17.3406064 C25.6213609,16.7454574 25.1471435,16.2634787 24.5621435,16.2634787" id="Fill-3"></path>
                                <path d="M6.83008696,4.21062128 C6.83008696,4.08308936 6.93634783,3.97566383 7.06182609,3.97566383 L11.5835652,3.97566383 L11.5835652,9.21021702 L7.06182609,9.21021702 C6.93634783,9.21021702 6.83008696,9.10279149 6.83008696,8.97583404 L6.83008696,4.21062128 Z M18.2237391,3.97566383 C18.3492174,3.97566383 18.454913,4.08308936 18.454913,4.21062128 L18.454913,8.97583404 C18.454913,9.10279149 18.3492174,9.21021702 18.2237391,9.21021702 L13.702,9.21021702 L13.702,3.97566383 L18.2237391,3.97566383 Z M7.06182609,11.3638979 L11.5835652,11.3638979 L11.5835652,14.7411957 C11.5835652,15.3357702 12.0577826,15.8177489 12.6427826,15.8177489 C13.2277826,15.8177489 13.702,15.3357702 13.702,14.7411957 L13.702,11.3638979 L18.2237391,11.3638979 C19.5197826,11.3638979 20.5733478,10.2925149 20.5733478,8.97583404 L20.5733478,4.21062128 C20.5733478,2.89394043 19.5197826,1.82198298 18.2237391,1.82198298 L13.702,1.82198298 L13.702,1.07689787 C13.702,0.482323404 13.2277826,-0.000229787234 12.6427826,-0.000229787234 C12.0577826,-0.000229787234 11.5835652,0.482323404 11.5835652,1.07689787 L11.5835652,1.82198298 L7.06182609,1.82198298 C5.76578261,1.82198298 4.71165217,2.89394043 4.71165217,4.21062128 L4.71165217,8.97583404 C4.71165217,10.2925149 5.76578261,11.3638979 7.06182609,11.3638979 L7.06182609,11.3638979 Z" id="Fill-6"></path>
                            </g>
                        </g>
                    </g>
                </g>
            </g>
        </g>
    </g>
</svg>