<?xml version="1.0" encoding="UTF-8" standalone="no"?>
<svg width="28px" height="32px" viewBox="0 0 28 32" version="1.1" xmlns="http://www.w3.org/2000/svg" xmlns:xlink="http://www.w3.org/1999/xlink">
    <!-- Generator: Sketch 3.8.3 (29802) - http://www.bohemiancoding.com/sketch -->
    <title>noun_136526_cc</title>
    <desc>Created with Sketch.</desc>
    <defs></defs>
    <g id="Float-Button" stroke="none" stroke-width="1" fill="none" fill-rule="evenodd">
        <g transform="translate(-1330.000000, -950.000000)" id="OP2" fill="#FFFFFF">
            <g transform="translate(1169.000000, 935.000000)">
                <g id="Group-5">
                    <g id="noun_136526_cc" transform="translate(173.500000, 30.500000) rotate(-30.000000) translate(-173.500000, -30.500000) translate(160.000000, 17.000000)">
                        <g id="Group" transform="translate(-0.000000, -0.000000)">
                            <g id="Shape">
                                <path d="M17.8998659,4.0892545 C17.8110263,3.93460776 17.6168953,3.88196206 17.4622486,3.97080168 L5.62025716,10.8081615 L21.4139662,10.8081615 C21.5653226,10.7193219 21.6179683,10.5251909 21.5291287,10.3705442 L17.8998659,4.0892545 Z"></path>
                                <path d="M26.0829814,7.73167864 L22.4635898,1.46355037 C22.2826202,1.14767619 21.8811967,1.03909444 21.5653226,1.22335438 C20.4630533,1.8583931 19.0547809,1.48000215 18.4197422,0.377732874 C18.2387726,0.0651490497 17.8340588,-0.0434326998 17.521475,0.137536883 L1.56324816,9.35053381 C1.24737398,9.5315034 1.13879223,9.93621719 1.32305217,10.248801 C1.95809088,11.3510703 1.57969994,12.7593427 0.477430662,13.3976718 C0.283299656,13.5095439 0.164846838,13.7069652 0.151685414,13.917548 C0.358977845,13.8221277 0.592593124,13.769482 0.836079472,13.769482 C1.56324816,13.769482 2.15222189,13.1805083 2.15222189,12.4533396 C2.15222189,11.5452013 2.88926164,10.8081615 3.79739991,10.8081615 L3.96191772,10.8081615 C4.07049947,10.6304823 4.2251462,10.4758356 4.41927721,10.3639635 L16.9686952,3.11530911 C17.5938628,2.7566603 18.3967097,2.97053344 18.7553585,3.59570109 L22.3813309,9.87699078 C22.5557197,10.1797035 22.595204,10.5251909 22.5228162,10.8377747 C23.2894691,10.9759697 23.8685718,11.6472023 23.8685718,12.4533396 C23.8685718,12.6869548 23.9310886,12.9041183 24.03638,13.094959 L24.7602583,12.6770838 C25.0728421,12.4961142 25.1814239,12.0914004 25.0004543,11.7788166 C24.3621252,10.6765473 24.7405162,9.26827491 25.8427854,8.62994584 C26.1586596,8.44897626 26.263951,8.04755282 26.0829814,7.73167864 L26.0829814,7.73167864 Z"></path>
                                <path d="M20.2560899,15.0856244 L5.76470379,15.0856244 C5.58669553,15.0856244 5.44257794,15.229742 5.44257794,15.4077503 L5.44257794,22.6603531 C5.44257794,22.8383613 5.58669553,22.9824789 5.76470379,22.9824789 L20.2560899,22.9824789 C20.4340982,22.9824789 20.5782158,22.8383613 20.5782158,22.6603531 L20.5782158,15.4077503 C20.5782158,15.229742 20.4337691,15.0856244 20.2560899,15.0856244 L20.2560899,15.0856244 Z"></path>
                                <path d="M25.1847142,14.7565888 C23.9126626,14.7565888 22.881465,13.7253912 22.881465,12.4533396 C22.881465,12.0897552 22.5869781,11.7952684 22.2233938,11.7952684 L3.79739991,11.7952684 C3.43381557,11.7952684 3.1393287,12.0897552 3.1393287,12.4533396 C3.1393287,13.7253912 2.10813112,14.7565888 0.836079472,14.7565888 C0.472495128,14.7565888 0.178008262,15.0510757 0.178008262,15.41466 L0.178008262,22.6534433 C0.178008262,23.0170277 0.472495128,23.3115145 0.836079472,23.3115145 C2.10813112,23.3115145 3.1393287,24.3427121 3.1393287,25.6147638 C3.1393287,25.9783481 3.43381557,26.272835 3.79739991,26.272835 L22.2233938,26.272835 C22.5869781,26.272835 22.881465,25.9783481 22.881465,25.6147638 C22.881465,24.3427121 23.9126626,23.3115145 25.1847142,23.3115145 C25.5482986,23.3115145 25.8427854,23.0170277 25.8427854,22.6534433 L25.8427854,15.41466 C25.8427854,15.0514047 25.5479695,14.7565888 25.1847142,14.7565888 L25.1847142,14.7565888 Z M21.5653226,22.6603531 C21.5653226,23.3822572 20.977994,23.9695857 20.2560899,23.9695857 L5.76470379,23.9695857 C5.04279968,23.9695857 4.45547112,23.3822572 4.45547112,22.6603531 L4.45547112,15.4077503 C4.45547112,14.6858461 5.04279968,14.0985176 5.76470379,14.0985176 L20.2560899,14.0985176 C20.977994,14.0985176 21.5653226,14.6858461 21.5653226,15.4077503 L21.5653226,22.6603531 L21.5653226,22.6603531 Z"></path>
                            </g>
                        </g>
                    </g>
                </g>
            </g>
        </g>
    </g>
</svg>