<?xml version="1.0" encoding="UTF-8" standalone="no"?>
<svg width="26px" height="35px" viewBox="0 0 26 35" version="1.1" xmlns="http://www.w3.org/2000/svg" xmlns:xlink="http://www.w3.org/1999/xlink">
    <!-- Generator: Sketch 39.1 (31720) - http://www.bohemiancoding.com/sketch -->
    <title>Page 1</title>
    <desc>Created with Sketch.</desc>
    <defs></defs>
    <g id="Desktop" stroke="none" stroke-width="1" fill="none" fill-rule="evenodd">
        <g id="Educanada-World" transform="translate(-568.000000, -7765.000000)" fill="#FF0000">
            <g id="Why-Canada" transform="translate(0.000000, 4364.000000)">
                <g id="Images" transform="translate(175.000000, 3170.000000)">
                    <g id="Group-16">
                        <g id="Group-5-Copy-6" transform="translate(383.000000, 226.000000)">
                            <g id="Page-1" transform="translate(10.000000, 5.000000)">
                                <path d="M9.20878636,19.5237 C9.23065,19.3580333 9.41383182,19.2040333 9.58342273,19.2040333 C9.58815,19.2040333 9.59228636,19.2040333 9.59760455,19.2046167 L15.1101955,19.4980333 L15.1113773,19.4980333 C15.1740136,19.5015333 15.20415,19.5202 15.2118318,19.5657 C15.1751955,19.7681167 15.0392864,19.8970333 15.0446045,19.9098667 C14.3579682,19.8865333 13.1666955,20.0376167 12.3341045,20.2557833 L11.4424227,20.4908667 C10.9318773,20.6256167 9.98996818,20.5987833 9.50837727,20.4348667 C9.33051364,20.3747833 9.13374091,20.0848667 9.16624091,19.8445333 L9.20878636,19.5237 Z M8.78805909,22.5033667 C9.29624091,22.67545 9.95983182,22.7641167 10.6104227,22.7641167 C11.1121045,22.7641167 11.6061045,22.7116167 12.0150136,22.6031167 L12.9043318,22.3686167 C13.5909682,22.18895 14.5399682,22.0862833 14.96365,22.0950333 C16.0911045,22.1562833 17.1647864,21.1967 17.3922864,19.9547833 C17.5086955,19.3183667 17.3467864,18.6685333 16.9496955,18.1727 C16.5407864,17.6628667 15.9138318,17.3496167 15.2289682,17.3140333 L9.71637727,17.0206167 C8.36792273,16.95295 7.18669545,17.9242 7.01237727,19.23845 L6.96983182,19.5581167 C6.80260455,20.8058667 7.60033182,22.0991167 8.78805909,22.5033667 L8.78805909,22.5033667 Z" id="Fill-1"></path>
                                <path d="M17.0071909,31.1140083 L16.2880545,31.858925 C15.9772364,32.1820917 15.2279636,32.4988417 14.7765091,32.4988417 L7.52841818,32.4988417 C7.4906,32.4988417 7.47169091,32.4912583 7.46873636,32.4912583 L7.46814545,32.4912583 C7.46637273,32.487175 7.46223636,32.4673417 7.46814545,32.4282583 L7.75414545,30.6490917 C7.78664545,30.4472583 8.0301,30.2430917 8.23691818,30.2430917 L8.23869091,30.2430917 L15.8667364,30.2827583 C16.3648727,30.285675 16.9989182,30.577925 17.1484182,30.738925 C17.1661455,30.786175 17.1490091,30.966425 17.0071909,31.1140083 M15.8785545,28.096425 L8.25050909,28.0567583 C6.95050909,28.068425 5.76928182,29.037925 5.56600909,30.306675 L5.2806,32.0840917 C5.17305455,32.7508417 5.35505455,33.4158417 5.7811,33.9087583 C6.20773636,34.4028417 6.84473636,34.685175 7.52841818,34.685175 L14.7765091,34.685175 C15.8277364,34.685175 17.1673273,34.1187583 17.8923727,33.3668417 L18.6115091,32.621925 C19.5327364,31.6658417 19.6290545,30.2162583 18.8289636,29.3202583 C18.2014182,28.6167583 16.9605091,28.1022583 15.8785545,28.096425" id="Fill-3"></path>
                                <path d="M8.89832273,25.44815 C9.00882273,25.3799 9.25523182,25.2854 9.54536818,25.2819 L11.6425045,25.2585667 C12.4337318,25.2492333 13.5405045,25.1104 14.1201864,24.8648167 C14.2945045,24.7924833 15.0490955,24.6548167 15.74755,24.6460667 L15.7599591,24.6460667 L15.7741409,24.6460667 C15.8090045,24.64665 15.8438682,24.6472333 15.8740045,24.6513167 C15.7906864,24.9149833 15.6470955,25.1990667 15.5478227,25.3087333 C15.4260955,25.4114 14.89605,25.60565 14.3979136,25.6039 L9.25877727,25.5624833 C9.11577727,25.5613167 8.98636818,25.5508167 8.87586818,25.53565 C8.88295909,25.5070667 8.89005,25.4773167 8.89832273,25.44815 M6.68536818,26.5197333 C7.02218636,27.61465 8.58573182,27.7447333 9.24105,27.7488167 L14.3790045,27.7902333 C14.3896409,27.7908167 14.4008682,27.7908167 14.4109136,27.7908167 C15.3079136,27.7908167 16.5440955,27.4799 17.1751864,26.7915667 C17.6620955,26.2595667 18.0686409,25.3279833 18.1419136,24.5778167 C18.1903682,24.07615 18.0201864,23.5884833 17.6615045,23.2029 C17.2124136,22.7210667 16.5293227,22.4334833 15.7463682,22.4597333 L15.7599591,23.5529 L15.73455,22.4597333 C14.9462773,22.4684833 13.8418682,22.60615 13.25155,22.8534833 C13.0855045,22.9229 12.3575045,23.0629 11.6159136,23.0722333 L9.51995909,23.0955667 C8.48705,23.10665 7.20832273,23.5884833 6.84136818,24.6192333 C6.69482273,25.03165 6.49745909,25.8949833 6.68536818,26.5197333" id="Fill-5"></path>
                                <path d="M22.2947636,14.6878083 C22.1754,14.947975 21.7529,15.206975 21.4574455,15.206975 C21.4491727,15.206975 21.4409,15.2063917 21.4320364,15.2058083 L4.36126364,14.2788917 C3.97658182,14.258475 3.38271818,13.903225 3.18476364,13.575975 L2.54717273,12.5160583 L23.1362182,12.8526417 L22.2947636,14.6878083 Z M25.2085364,11.552975 C24.8545818,11.0023083 24.2276273,10.679725 23.4901727,10.6686417 L1.96394545,10.3198083 C1.20108182,10.292975 0.556990909,10.623725 0.2249,11.1901417 C-0.1066,11.7565583 -0.0705545455,12.4565583 0.324763636,13.1110583 L1.28203636,14.6965583 C1.85521818,15.644475 3.12744545,16.4033917 4.24130909,16.4628917 L21.3120818,17.3898083 C21.3587636,17.3921417 21.4060364,17.3933083 21.4533091,17.3933083 C22.6209455,17.3933083 23.8317182,16.638475 24.3127182,15.5908083 L25.2859455,13.4668917 C25.5908545,12.8018917 25.5624909,12.1036417 25.2085364,11.552975 L25.2085364,11.552975 Z" id="Fill-7"></path>
                                <path d="M12.1564182,4.35586667 L13.6845091,2.83453333 C13.7371,2.78145 13.7938273,2.76978333 13.8334182,2.76978333 C13.8736,2.77328333 13.9332818,2.78145 13.9876455,2.83861667 L15.2699182,4.19195 C15.5594636,4.49761667 15.8064636,5.23495 15.7586,5.65261667 L15.5098273,7.81853333 C15.4897364,7.99003333 15.2805545,8.13878333 15.1233727,8.14811667 L11.9572818,8.0437 C11.7871,8.03786667 11.6210545,7.87336667 11.6157364,7.70478333 L11.5554636,5.86261667 C11.5412818,5.41753333 11.8385091,4.67203333 12.1564182,4.35586667 M11.8840091,10.2288667 L15.0495091,10.3332833 L15.0501,10.3332833 C15.0784636,10.33445 15.1068273,10.3350333 15.1351909,10.3350333 C16.4387364,10.3350333 17.5614636,9.35328333 17.7103727,8.06528333 L17.9591455,5.89878333 C18.0802818,4.84586667 17.6187818,3.4692 16.8872364,2.69803333 L15.6055545,1.3447 C15.1481909,0.862866667 14.5312818,0.5922 13.8676909,0.58345 C13.1952364,0.5817 12.5789182,0.827283333 12.1103273,1.29511667 L10.5840091,2.81528333 C9.84182727,3.5532 9.30823636,4.89311667 9.34132727,5.93261667 L9.4016,7.77478333 C9.44414545,9.08495 10.5580091,10.1862833 11.8840091,10.2288667" id="Fill-10"></path>
                            </g>
                        </g>
                    </g>
                </g>
            </g>
        </g>
    </g>
</svg>