<?xml version="1.0" encoding="UTF-8" standalone="no"?>
<svg width="30px" height="28px" viewBox="0 0 34 24" version="1.1" xmlns="http://www.w3.org/2000/svg" xmlns:xlink="http://www.w3.org/1999/xlink">
    <!-- Generator: Sketch 39.1 (31720) - http://www.bohemiancoding.com/sketch -->
    <title>Page 1</title>
    <desc>Created with Sketch.</desc>
    <defs></defs>
    <g id="Desktop" stroke="none" stroke-width="1" fill="none" fill-rule="evenodd">
        <g id="Educanada-World" transform="translate(-199.000000, -7768.000000)" fill="#FF0000">
            <g id="Why-Canada" transform="translate(0.000000, 4364.000000)">
                <g id="Images" transform="translate(175.000000, 3170.000000)">
                    <g id="Group-16">
                        <g id="Group-5-Copy-2" transform="translate(19.000000, 226.000000)">
                            <g id="Page-1" transform="translate(5.000000, 8.000000)">
                                <path d="M6.63576271,18.3731429 L6.62827119,18.3731429 C6.03183051,18.3771429 5.55122034,18.86 5.55583051,19.4514286 L5.57657627,22.4622857 C5.58061017,23.052 6.06352542,23.5262857 6.65650847,23.5262857 L6.664,23.5262857 C7.26044068,23.5222857 7.74105085,23.0394286 7.73644068,22.448 L7.71569492,19.4371429 C7.71166102,18.848 7.22874576,18.3731429 6.63576271,18.3731429" id="Fill-1"></path>
                                <path d="M29.4001458,7.0732 L20.3446203,1.59834286 C17.689739,-0.0068 14.1399085,0.301771429 12.2641458,2.30062857 L9.51878983,5.22748571 C9.11251864,5.66062857 9.13672203,6.33834286 9.57411186,6.7412 C10.0091966,7.14348571 10.6926542,7.12005714 11.100078,6.68634286 L13.8454339,3.76005714 C15.0083492,2.5212 17.4690271,2.36862857 19.2203153,3.42748571 L28.2752644,8.90234286 C30.1533322,10.0377714 31.7403831,12.8400571 31.7403831,15.0212 L31.7403831,22.5092 C31.7403831,23.1006286 32.2232983,23.5806286 32.8203153,23.5806286 C33.4167559,23.5806286 33.9002475,23.1006286 33.9002475,22.5092 L33.9002475,15.0212 C33.9002475,12.0909143 31.9236373,8.59948571 29.4001458,7.0732" id="Fill-3"></path>
                                <path d="M27.5666814,15.9233714 C26.8843763,15.3805143 25.9652237,15.1856571 25.0495288,15.3868 L14.7774949,17.6445143 C13.0360034,18.0262286 11.6356644,19.3548 11.5209864,20.7348 L11.386139,22.3673714 C11.3371559,22.9570857 11.7797322,23.4742286 12.3744441,23.5228 C12.4038339,23.5250857 12.4338,23.5262286 12.4637661,23.5262286 C13.0204441,23.5262286 13.4929864,23.1022286 13.5390881,22.5428 L13.6745119,20.9108 C13.6992915,20.6125143 14.3141729,19.9399429 15.2442746,19.7359429 L25.5163085,17.4782286 C25.7952237,17.4176571 26.0430203,17.4576571 26.2135966,17.5936571 C26.3847492,17.7302286 26.4792576,17.9610857 26.4792576,18.2456571 L26.4792576,22.4553714 C26.4792576,23.0468 26.9627492,23.5262286 27.5591898,23.5262286 C28.1556305,23.5262286 28.639122,23.0468 28.639122,22.4553714 L28.639122,18.2456571 C28.639122,17.3125143 28.2489864,16.4662286 27.5666814,15.9233714" id="Fill-6"></path>
                                <path d="M9.33253898,14.1636 C9.0242339,15.3053143 9.0242339,15.3053143 7.93565763,15.3053143 C6.88742034,15.3053143 6.84650508,15.3053143 6.55203051,14.2127429 L5.73891186,10.5138857 C5.73257288,10.4858857 5.72047119,10.4607429 5.71240339,10.4333143 L6.40104746,10.2470286 C7.32135254,9.99731429 8.82484407,10.0070286 9.74169153,10.2687429 L10.2263356,10.4070286 C10.1877254,10.4830286 10.154878,10.5630286 10.1352847,10.6498857 L9.33253898,14.1636 Z M12.2421322,11.1236 C12.2732508,10.9870286 12.2744034,10.8510286 12.2536576,10.7207429 C13.3018949,10.6716 14.3051831,10.2938857 14.8906746,9.65502857 L15.9515898,8.49674286 C16.4287424,7.97445714 16.2910136,7.11445714 15.5798949,6.79045714 C15.1511492,6.59445714 14.6388441,6.74302857 14.3213186,7.08988571 L13.2920983,8.21388571 C13.0494881,8.47902857 12.160878,8.72988571 11.3736915,8.50531429 L10.3392847,8.20988571 C9.10203051,7.85674286 7.07297966,7.8436 5.83111525,8.18017143 L4.55525085,8.52645714 C3.76806441,8.74131429 2.87369153,8.46588571 2.6282,8.19102857 L1.89114915,7.30817143 C1.49697966,6.86417143 0.814098305,6.82131429 0.366335593,7.21217143 C-0.0814271186,7.60302857 -0.124647458,8.28017143 0.269522034,8.72417143 L1.00714915,9.60702857 C1.58342034,10.2556 2.56942034,10.6561714 3.60555593,10.7298857 C3.60440339,10.8093143 3.61074237,10.8893143 3.62860678,10.9698857 L4.45209831,14.7167429 C5.00070847,16.7584571 5.88009831,17.4476 7.93565763,17.4476 C9.83447119,17.4476 10.7882,17.0538857 11.4295898,14.6778857 L12.2421322,11.1236 Z" id="Fill-8"></path>
                            </g>
                        </g>
                    </g>
                </g>
            </g>
        </g>
    </g>
</svg>
