<?xml version="1.0" encoding="UTF-8" standalone="no"?>
<!-- Created with Inkscape (http://www.inkscape.org/) -->

<svg
   xmlns:dc="http://purl.org/dc/elements/1.1/"
   xmlns:cc="http://creativecommons.org/ns#"
   xmlns:rdf="http://www.w3.org/1999/02/22-rdf-syntax-ns#"
   xmlns:svg="http://www.w3.org/2000/svg"
   xmlns="http://www.w3.org/2000/svg"
   xmlns:sodipodi="http://sodipodi.sourceforge.net/DTD/sodipodi-0.dtd"
   xmlns:inkscape="http://www.inkscape.org/namespaces/inkscape"
   width="21.170248"
   height="22.616249"
   id="svg14496"
   version="1.1"
   inkscape:version="0.48.3.1 r9886"
   sodipodi:docname="Novo documento 8">
  <defs
     id="defs14498">
    <clipPath
       clipPathUnits="userSpaceOnUse"
       id="clipPath308">
      <path
         inkscape:connector-curvature="0"
         d="m 1394.8,3455.286 c -0.947,0 -1.717,0.75 -1.717,1.672 0,0.921 0.77,1.67 1.717,1.67 0.947,0 1.717,-0.749 1.717,-1.67 0,-0.922 -0.772,-1.672 -1.717,-1.672 l 0,0 z m -9.81,6.22 c -0.261,-0.146 -0.559,-0.225 -0.857,-0.225 -0.612,0 -1.183,0.321 -1.488,0.836 -0.472,0.797 -0.192,1.821 0.63,2.281 0.261,0.147 0.559,0.226 0.856,0.226 0.607,0 1.176,-0.317 1.483,-0.826 0,0 0,-0.01 0,-0.013 0,0 0.01,0 0.01,-0.01 0.465,-0.795 0.182,-1.813 -0.634,-2.273 l 0,0 z m 9.81,9.113 c 0.947,0 1.717,-0.75 1.717,-1.672 0,-0.922 -0.77,-1.671 -1.717,-1.671 -0.947,0 -1.717,0.749 -1.717,1.671 0,0.922 0.77,1.672 1.717,1.672 l 0,0 z m 0,-10.612 c -0.902,0 -1.712,-0.373 -2.284,-0.969 l -5.389,3.029 c 0.176,0.569 0.184,1.184 0,1.773 l 5.389,3.029 c 0.573,-0.594 1.385,-0.969 2.285,-0.969 1.726,0 3.133,1.369 3.133,3.05 0,1.68 -1.407,3.05 -3.133,3.05 -1.73,0 -3.134,-1.37 -3.134,-3.05 0,-0.309 0.049,-0.608 0.136,-0.889 l -5.387,-3.028 c -0.585,0.608 -1.411,0.97 -2.287,0.97 -0.546,0 -1.09,-0.142 -1.564,-0.41 -1.496,-0.84 -2.012,-2.71 -1.149,-4.166 0.558,-0.94 1.599,-1.525 2.715,-1.525 0.549,0 1.09,0.141 1.565,0.409 0.275,0.156 0.516,0.345 0.723,0.559 l 5.381,-3.024 c -0.089,-0.283 -0.135,-0.58 -0.135,-0.888 0,-1.681 1.406,-3.051 3.133,-3.051 1.727,0 3.133,1.37 3.133,3.051 0,1.68 -1.406,3.049 -3.133,3.049 l 0,0 z"
         clip-rule="evenodd"
         id="path310" />
    </clipPath>
    <clipPath
       clipPathUnits="userSpaceOnUse"
       id="clipPath312">
      <path
         inkscape:connector-curvature="0"
         d="m 0,0 1440,0 0,3506 L 0,3506 0,0 z"
         id="path314" />
    </clipPath>
  </defs>
  <sodipodi:namedview
     id="base"
     pagecolor="#ffffff"
     bordercolor="#666666"
     borderopacity="1.0"
     inkscape:pageopacity="0.0"
     inkscape:pageshadow="2"
     inkscape:zoom="0.35"
     inkscape:cx="263.44225"
     inkscape:cy="108.45097"
     inkscape:document-units="px"
     inkscape:current-layer="layer1"
     showgrid="false"
     fit-margin-top="0"
     fit-margin-left="0"
     fit-margin-right="0"
     fit-margin-bottom="0"
     inkscape:window-width="486"
     inkscape:window-height="383"
     inkscape:window-x="684"
     inkscape:window-y="24"
     inkscape:window-maximized="0" />
  <metadata
     id="metadata14501">
    <rdf:RDF>
      <cc:Work
         rdf:about="">
        <dc:format>image/svg+xml</dc:format>
        <dc:type
           rdf:resource="http://purl.org/dc/dcmitype/StillImage" />
        <dc:title></dc:title>
      </cc:Work>
    </rdf:RDF>
  </metadata>
  <g
     inkscape:label="Camada 1"
     inkscape:groupmode="layer"
     id="layer1"
     transform="translate(-86.557753,-618.1969)">
    <g
       transform="matrix(1.25,0,0,-1.25,-1639.6895,4958.1969)"
       id="g1778">
      <g
         id="g1780"
         clip-path="url(#clipPath308)">
        <g
           id="g1782"
           clip-path="url(#clipPath312)">
          <path
             inkscape:connector-curvature="0"
             id="path1784"
             style="fill:#ff0000;fill-opacity:1;fill-rule:nonzero;stroke:none"
             d="m 1376,3477 26.936,0 0,-28.093 -26.936,0 0,28.093 z" />
        </g>
      </g>
    </g>
  </g>
</svg>
