<?xml version="1.0" encoding="UTF-8" standalone="no"?>
<svg width="29px" height="27px" viewBox="0 0 29 27" version="1.1" xmlns="http://www.w3.org/2000/svg" xmlns:xlink="http://www.w3.org/1999/xlink">
    <!-- Generator: Sketch 39.1 (31720) - http://www.bohemiancoding.com/sketch -->
    <title>Fill 1</title>
    <desc>Created with Sketch.</desc>
    <defs></defs>
    <g id="Desktop" stroke="none" stroke-width="1" fill="none" fill-rule="evenodd">
        <g id="Educanada-World" transform="translate(-566.000000, -7659.000000)" fill="#FF0000">
            <g id="Why-Canada" transform="translate(0.000000, 4364.000000)">
                <g id="Images" transform="translate(175.000000, 3170.000000)">
                    <g id="Group-16">
                        <g id="Group-5-Copy-4" transform="translate(383.000000, 116.000000)">
                            <path d="M26.2290097,27.5960007 C26.5293613,26.8066424 26.8291785,26.0712619 27.1097561,25.4694898 C28.0605133,23.4300916 29.7348935,22.8037355 29.7979566,22.7807549 C30.3217014,22.6001163 30.5990724,22.0304102 30.4189683,21.5071998 C30.2388642,20.9845239 29.6707614,20.7071529 29.1454133,20.8861881 C29.0428021,20.9219952 26.616474,21.7851053 25.2932166,24.6229472 C24.3061179,26.7409071 23.1346397,30.277788 22.4682011,32.3845249 C21.7664899,30.3659696 20.5773754,26.9701791 19.7383148,24.6993711 C18.6176077,21.6669955 15.9058921,20.8984801 15.7909889,20.8669485 C15.2549521,20.7215826 14.7060889,21.0368984 14.5612575,21.5707974 C14.4158915,22.1046965 14.7312073,22.655163 15.2651064,22.7999945 C15.2832771,22.8053388 17.1046265,23.3520643 17.8587122,25.3936003 C18.0938629,26.0290417 18.3562698,26.7531991 18.627762,27.5110258 C15.8577931,25.8879513 12.0189573,24.5898123 10.1211839,23.9997977 C10.8998535,20.2518155 14.2582337,18.6704268 14.423908,18.5945372 C14.92681,18.367403 15.1518065,17.7757851 14.9257411,17.2718143 C14.6991413,16.7662402 14.106989,16.5412437 13.6014149,16.7667747 C13.536214,16.7961685 13.0023149,17.0436112 12.2877773,17.5400999 C11.3124362,14.5926992 10.7571598,11.7906643 11.0136879,10.9948928 C12.0665219,11.0787989 15.4168855,13.4554247 18.4316249,16.2847157 C18.7517505,16.5845328 19.2001403,16.6582847 19.5838635,16.4397014 C19.8778019,16.3141095 21.1855607,16.1350743 22.2228961,16.0468927 C22.2458768,16.044755 22.2667197,16.0378074 22.2886315,16.0346008 C22.3137498,16.0378074 22.3367305,16.0452894 22.3623833,16.0474272 C23.582495,16.1361431 25.1066993,16.3173161 25.3846047,16.4236684 C25.768328,16.6422517 26.2477148,16.5856017 26.5678405,16.2841812 C29.5836488,13.4527525 32.9356157,11.0745234 33.9868464,10.9943584 C34.2444433,11.789061 33.6891669,14.5921647 32.7122225,17.5400999 C31.9976849,17.0436112 31.4637858,16.7961685 31.3980505,16.7667747 C30.895683,16.5412437 30.3045996,16.7662402 30.0774653,17.2691422 C29.8497967,17.7720441 30.0737243,18.3647308 30.5755573,18.5940028 C30.7278709,18.6634792 34.0990774,20.2443335 34.8788159,23.9997977 C32.9479077,24.5999665 29.0080639,25.9333781 26.2290097,27.5960007 M36.9951726,24.6106552 C36.7450577,22.0475121 35.5623564,20.2005099 34.3481234,18.9397813 C36.6413776,12.5030642 35.9642504,10.4080849 35.6916893,9.91533717 C35.4362301,9.45305219 35.0247163,9.14147746 34.5335719,9.03833179 C32.34667,8.57925342 27.8467399,12.3817478 25.619221,14.4307658 C24.9378183,14.2779179 23.8972763,14.1501882 22.5077492,14.0491803 C22.4291875,14.0422327 22.3527635,14.047577 22.2779428,14.0593345 C22.2052598,14.0486459 22.1304391,14.0443704 22.0529463,14.0497147 C21.1770098,14.1245354 20.1231069,14.2437141 19.3716934,14.4232838 C17.1415024,12.3726624 12.6608119,8.57818455 10.4648247,9.03833179 C9.97474914,9.14201189 9.56430421,9.45305219 9.30884499,9.9142683 C8.29555907,11.7463063 9.88229214,16.768378 10.6502731,18.941919 C9.4365746,20.2021132 8.25494213,22.048581 8.00482725,24.6106552 C7.9577971,25.090042 8.25868316,25.5346907 8.72096814,25.669368 C12.9253565,26.898565 19.1552478,29.3949039 19.8403916,31.0986779 C19.8756642,31.1852561 19.9248321,31.2606113 19.9788099,31.3316909 C20.6393697,33.2182412 21.1465471,34.690071 21.1567013,34.7194649 C21.2961884,35.124031 21.6767051,35.3949888 22.1042519,35.3949888 L22.8957479,35.3949888 C23.3382589,35.3949888 23.7289298,35.104257 23.8555905,34.6804512 C23.8646759,34.6510574 24.281534,33.2588581 24.8646009,31.4861422 C24.9880551,31.383531 25.0949418,31.2579391 25.1590738,31.0986779 C25.8442176,29.3965072 32.0741089,26.8996339 36.2795661,25.669368 C36.7413167,25.5346907 37.0422027,25.0895076 36.9951726,24.6106552" id="Fill-1"></path>
                        </g>
                    </g>
                </g>
            </g>
        </g>
    </g>
</svg>