<?xml version="1.0" encoding="UTF-8" standalone="no"?>
<svg width="31px" height="34px" viewBox="0 0 31 34" version="1.1" xmlns="http://www.w3.org/2000/svg" xmlns:xlink="http://www.w3.org/1999/xlink">
    <!-- Generator: Sketch 39.1 (31720) - http://www.bohemiancoding.com/sketch -->
    <title>Page 1</title>
    <desc>Created with Sketch.</desc>
    <defs></defs>
    <g id="Desktop" stroke="none" stroke-width="1" fill="none" fill-rule="evenodd">
        <g id="Educanada-World" transform="translate(-963.000000, -7656.000000)" fill="#FF0000">
            <g id="Why-Canada" transform="translate(0.000000, 4364.000000)">
                <g id="Images" transform="translate(175.000000, 3170.000000)">
                    <g id="Group-16">
                        <g id="Group-5-Copy-9" transform="translate(781.000000, 116.000000)">
                            <g id="Page-1" transform="translate(7.000000, 6.000000)">
                                <path d="M23.773156,8.9624 C23.677056,8.88574545 23.549336,8.74356364 23.487956,8.64403636 C23.416656,4.20672727 19.773536,0.618181818 15.305196,0.618181818 C10.854216,0.618181818 7.221636,4.18014545 7.124296,8.5952 C7.020756,8.72254545 6.807476,8.90429091 6.674176,8.97476364 C2.802276,9.69494545 -0.000124,13.0566182 -0.000124,16.9956727 C-0.000124,21.4948 3.671516,25.1550545 8.183256,25.1550545 C8.825576,25.1550545 9.345756,24.6364 9.345756,23.9965818 C9.345756,23.3567636 8.825576,22.8381091 8.183256,22.8381091 C4.953056,22.8381091 2.324256,20.2170182 2.324256,16.9956727 C2.324256,14.1569818 4.355376,11.7380364 7.152816,11.2428727 C7.958816,11.1013091 9.446816,9.98858182 9.446816,8.77694545 C9.446816,5.5556 12.074996,2.93512727 15.305196,2.93512727 C18.536016,2.93512727 21.164816,5.5556 21.164816,8.77694545 C21.164816,9.84763636 22.365136,11.0846182 23.260416,11.2268 C26.116756,11.6799273 28.190036,14.1062909 28.190036,16.9956727 C28.190036,20.2170182 25.561856,22.8381091 22.331036,22.8381091 C21.689336,22.8381091 21.168536,23.3567636 21.168536,23.9965818 C21.168536,24.6364 21.689336,25.1550545 22.331036,25.1550545 C26.843396,25.1550545 30.514416,21.4948 30.514416,16.9956727 C30.514416,13.0102545 27.688456,9.65538182 23.773156,8.9624" id="Fill-1"></path>
                                <path d="M20.819972,14.3171527 C20.354352,13.8751527 19.619032,13.89308 19.176972,14.3567164 L15.402412,18.3087527 C15.141392,18.5819891 14.896492,18.9090073 14.676392,19.2706436 C14.482332,18.9479527 14.272772,18.6487527 14.048332,18.3977709 L10.584392,14.5174436 C10.157212,14.0395891 9.423132,13.9975527 8.943872,14.4222436 C8.463992,14.8475527 8.421212,15.5800982 8.848392,16.0579527 L12.312332,19.9388982 C12.919932,20.61828 13.472972,22.06668 13.472972,22.9772618 L13.472972,32.5417709 C13.472972,33.1822073 13.993772,33.7002436 14.635472,33.7002436 C15.185412,33.7002436 15.643592,33.3182073 15.764492,32.8063527 C15.846332,32.64748 15.897792,32.4700618 15.897792,32.2790436 L15.897792,22.8678436 C15.897792,21.9690073 16.463852,20.5583164 17.085712,19.9073709 L20.859652,15.9553345 C21.302332,15.4916982 21.284972,14.7585345 20.819972,14.3171527" id="Fill-4"></path>
                            </g>
                        </g>
                    </g>
                </g>
            </g>
        </g>
    </g>
</svg>