<?xml version="1.0" encoding="UTF-8" standalone="no"?>
<svg width="37px" height="28px" viewBox="0 0 37 17" version="1.1" xmlns="http://www.w3.org/2000/svg" xmlns:xlink="http://www.w3.org/1999/xlink">
    <!-- Generator: Sketch 39.1 (31720) - http://www.bohemiancoding.com/sketch -->
    <title>Page 1</title>
    <desc>Created with Sketch.</desc>
    <defs>
        <polygon id="path-1" points="9.29423704 4.98259931 9.29423704 0.316386398 0.317143485 0.316386398 0.317143485 4.98259931 9.29423704 4.98259931"></polygon>
    </defs>
    <g id="Desktop" stroke="none" stroke-width="1" fill="none" fill-rule="evenodd">
        <g id="Educanada-World" transform="translate(-198.000000, -7715.000000)">
            <g id="Why-Canada" transform="translate(0.000000, 4364.000000)">
                <g id="Images" transform="translate(175.000000, 3170.000000)">
                    <g id="Group-16">
                        <g id="Group-5-Copy" transform="translate(19.000000, 171.000000)">
                            <g id="Page-1" transform="translate(4.000000, 10.000000)">
                                <path d="M19.0145174,0.00114602076 C18.5165063,-0.0242657439 18.0736656,0.378336332 18.0519915,0.893547405 L17.7189989,8.62271003 C17.6968322,9.13792111 18.0918915,9.57390727 18.6012322,9.59632941 C18.6150248,9.59732595 18.6283248,9.59732595 18.6421174,9.59732595 C19.1337248,9.59732595 19.5425767,9.20568581 19.5637581,8.70392803 L19.8967507,0.974765398 C19.9189174,0.459554325 19.5238581,0.0235681661 19.0145174,0.00114602076" id="Fill-1" fill="#FF0000"></path>
                                <path d="M32.8732652,6.36186021 C32.5284504,5.98168028 31.9442356,5.95626851 31.56888,6.30455917 L25.9306652,11.5314104 C25.554817,11.8801993 25.5292022,12.4711474 25.874017,12.8513273 C26.0557837,13.0521301 26.3050356,13.1542754 26.55478,13.1542754 C26.7774319,13.1542754 27.0010689,13.0730574 27.1784022,12.9086284 L32.816617,7.68127889 C33.1924652,7.33298824 33.21808,6.74204014 32.8732652,6.36186021" id="Fill-3" fill="#FF0000"></path>
                                <path d="M6.07312481,5.47309619 C5.72831,5.09291626 5.14458778,5.0675045 4.76873963,5.41579516 C4.39239889,5.76408581 4.36727667,6.35503391 4.71159889,6.73521384 L9.87938778,12.4384111 C10.061647,12.6397121 10.3104063,12.7413592 10.5601507,12.7413592 C10.7832952,12.7413592 11.0069322,12.6601412 11.183773,12.4962104 C11.5601137,12.1479197 11.5852359,11.5564734 11.2409137,11.1762934 L6.07312481,5.47309619 Z" id="Fill-5" fill="#FF0000"></path>
                                <path d="M26.7221137,2.28546436 C26.620147,1.77972042 26.1300174,1.45285536 25.6324989,1.55749204 C25.13301,1.66063391 24.8108544,2.15441938 24.9128211,2.65966505 C25.0788248,3.48031557 24.3394433,4.3951391 23.5567137,5.36427405 C22.5542878,6.60496609 21.4173841,8.01158201 21.8331322,9.76897993 C21.9346063,10.197492 22.3129174,10.4859903 22.7306359,10.4859903 C22.8015693,10.4859903 22.8739804,10.4770215 22.9458989,10.4600803 C23.4419396,10.3399972 23.7478396,9.8357481 23.6296174,9.33399031 C23.4266693,8.47696609 24.1842767,7.53922215 24.98671,6.54617024 C25.960073,5.34135363 27.0634804,3.97559585 26.7221137,2.28546436" id="Fill-7" fill="#FF0000"></path>
                                <path d="M7.70700519,14.7662782 C6.85925333,14.9720637 5.93219407,14.204728 4.95094963,13.3935446 C3.75986074,12.4089633 2.41064963,11.2938353 0.73879037,11.6381398 C0.238808889,11.7412817 -0.0833466667,12.2345689 0.0191125926,12.7403128 C0.120586667,13.2455585 0.608745926,13.5709287 1.10823481,13.4682851 C1.92052,13.3008664 2.82442741,14.0482713 3.78202741,14.8395239 C4.83075704,15.7065135 5.99869407,16.6721606 7.40061259,16.6721606 C7.63902741,16.6721606 7.88384593,16.6442574 8.13654593,16.5829702 C8.63258667,16.4628872 8.93848667,15.9591363 8.81977185,15.4573785 C8.70105704,14.956119 8.2045237,14.6471917 7.70700519,14.7662782" id="Fill-9" fill="#FF0000"></path>
                                <path d="M14.5554707,8.71404291 C13.8131337,8.25314325 13.6934337,7.04782837 13.5663448,5.77175917 C13.4126559,4.2236346 13.2382781,2.4692263 11.8156707,1.51852734 C11.3900707,1.23351696 10.816693,1.35210519 10.5359152,1.78261038 C10.2551374,2.21311557 10.3718819,2.79260346 10.7974819,3.07711557 C11.4880967,3.53851349 11.6053337,4.71393218 11.7289744,5.95861038 C11.8870967,7.55307405 12.066893,9.36079723 13.5894967,10.3060152 C13.74023,10.39969 13.9067263,10.4445343 14.0717448,10.4445343 C14.3820781,10.4445343 14.6850226,10.2860844 14.8594004,9.9985827 C15.1263856,9.55910865 14.9899374,8.98410519 14.5554707,8.71404291" id="Fill-11" fill="#FF0000"></path>
                                <g id="Group-15" transform="translate(27.585185, 11.724590)">
                                    <mask id="mask-2" fill="white">
                                        <use xlink:href="#path-1"></use>
                                    </mask>
                                    <g id="Clip-14"></g>
                                    <path d="M8.87981889,0.471263668 C8.45421889,0.186751557 7.8813337,0.305339792 7.60055593,0.735844983 C7.14392259,1.43441938 5.98189667,1.55250934 4.75140037,1.67807336 C3.17461148,1.83851626 1.38847074,2.01988651 0.45353,3.55954048 C0.187037407,3.9995128 0.322992963,4.57451626 0.75745963,4.84457855 C0.908192963,4.93775502 1.07468926,4.98259931 1.23970778,4.98259931 C1.55004111,4.98259931 1.85298556,4.82414948 2.02736333,4.53714602 C2.48350407,3.78625329 3.67459296,3.6651737 4.93612259,3.53662007 C6.46660778,3.38066159 8.20151889,3.20427405 9.14138556,1.76527059 C9.42265593,1.3347654 9.30541889,0.755775779 8.87981889,0.471263668" id="Fill-13" fill="#E30613" mask="url(#mask-2)"></path>
                                </g>
                            </g>
                        </g>
                    </g>
                </g>
            </g>
        </g>
    </g>
</svg>
