<?xml version="1.0" encoding="UTF-8" standalone="no"?>
<svg width="29px" height="28px" viewBox="0 0 29 28" version="1.1" xmlns="http://www.w3.org/2000/svg" xmlns:xlink="http://www.w3.org/1999/xlink">
    <!-- Generator: Sketch 39.1 (31720) - http://www.bohemiancoding.com/sketch -->
    <title>Page 1</title>
    <desc>Created with Sketch.</desc>
    <defs></defs>
    <g id="Desktop" stroke="none" stroke-width="1" fill="none" fill-rule="evenodd">
        <g id="Educanada-World" transform="translate(-567.000000, -7714.000000)" fill="#FF0000">
            <g id="Why-Canada" transform="translate(0.000000, 4364.000000)">
                <g id="Images" transform="translate(175.000000, 3170.000000)">
                    <g id="Group-16">
                        <g id="Group-5-Copy-5" transform="translate(383.000000, 171.000000)">
                            <g id="Page-1" transform="translate(9.000000, 9.000000)">
                                <path d="M11.4124481,11.6966431 C11.4124481,11.2645647 12.0889288,10.6205647 12.5746788,10.3240941 C12.9734288,10.0847216 13.1619288,9.61311373 13.0353327,9.1700549 C12.9092942,8.7275451 12.4988327,8.42174118 12.0314865,8.42174118 L2.25458269,8.42174118 C1.78723654,8.42174118 1.376775,8.7275451 1.25073654,9.1700549 C1.12414038,9.61311373 1.31264038,10.0847216 1.71139038,10.3240941 C2.10400577,10.5601725 2.87362115,11.2261333 2.87362115,11.6949961 C2.86023654,12.5970353 1.11744808,21.2237804 0.0215826923,26.4488 C-0.0944173077,27.0044078 0.268082692,27.5468392 0.831909615,27.6615843 C0.903294231,27.6758588 0.974121154,27.6829961 1.04383269,27.6829961 C1.52790962,27.6829961 1.96235192,27.3491922 2.06385192,26.8638588 C2.54737115,24.5579765 4.95883269,12.9879373 4.95883269,11.6966431 C4.95883269,11.2508392 4.83669808,10.8407216 4.65042885,10.4739765 L9.63564038,10.4739765 C9.44881346,10.8407216 9.32723654,11.2508392 9.32723654,11.6966431 C9.32723654,12.9879373 11.7375827,24.5574275 12.2211019,26.8638588 C12.3376596,27.4194667 12.8886596,27.7768784 13.4530442,27.6615843 C14.0168712,27.5468392 14.3799288,27.0044078 14.2633712,26.4488 C13.1680635,21.2237804 11.4258327,12.5970353 11.4124481,11.6966431" id="Fill-1"></path>
                                <path d="M4.35635769,7.97363137 C4.93245385,7.97363137 5.39924231,7.51410196 5.39924231,6.94751373 L5.39924231,4.94743529 L7.14258846,3.89276863 L8.88705,4.94743529 L8.88705,6.94751373 C8.88705,7.51410196 9.35328077,7.97363137 9.92937692,7.97363137 C10.5054731,7.97363137 10.9722615,7.51410196 10.9722615,6.94751373 L10.9722615,4.37316078 C10.9722615,4.01684706 10.7837615,3.68523922 10.4753577,3.49912157 L8.18491538,2.1139451 L8.18491538,1.02633725 C8.18491538,0.4592 7.71812692,0.000219607842 7.14258846,0.000219607842 C6.56649231,0.000219607842 6.09970385,0.4592 6.09970385,1.02633725 L6.09970385,2.11449412 L3.81037692,3.49912157 C3.50197308,3.68523922 3.31347308,4.01684706 3.31347308,4.37316078 L3.31347308,6.94751373 C3.31347308,7.51410196 3.78026154,7.97363137 4.35635769,7.97363137" id="Fill-4"></path>
                                <path d="M28.5731981,1.91190588 C28.4493904,1.35849412 27.8928135,1.01041569 27.3312173,1.12955294 L13.4011788,4.14147451 C13.3911404,4.14367059 13.3822173,4.14806275 13.3721788,4.15025882 C13.3376019,4.15904314 13.3046981,4.17112157 13.2712365,4.1832 C13.2394481,4.19472941 13.2071019,4.20516078 13.1769865,4.21888627 C13.1485442,4.23261176 13.121775,4.24908235 13.0944481,4.26500392 C13.063775,4.28312157 13.0325442,4.30014118 13.0041019,4.32100392 C12.9784481,4.33967059 12.9555827,4.36163137 12.9316019,4.38304314 C12.9059481,4.40555294 12.8797365,4.42696471 12.8568712,4.45221961 C12.8345635,4.47637647 12.8156019,4.50272941 12.795525,4.52908235 C12.7748904,4.55598431 12.7536981,4.58233725 12.7358519,4.61143529 C12.7196788,4.63723922 12.7074096,4.66523922 12.6934673,4.6926902 C12.6761788,4.72672941 12.6594481,4.76076863 12.6460635,4.7964549 C12.643275,4.80523922 12.6382558,4.81237647 12.6349096,4.82116078 C12.628775,4.84037647 12.6271019,4.86014118 12.6220827,4.87990588 C12.6114865,4.91723922 12.6020058,4.95457255 12.5958712,4.99300392 C12.5914096,5.02484706 12.5897365,5.0566902 12.5880635,5.08853333 C12.5858327,5.12257255 12.5841596,5.15661176 12.5858327,5.19174902 C12.5875058,5.22798431 12.5930827,5.26312157 12.5986596,5.29880784 C12.6020058,5.32076863 12.6014481,5.34218039 12.6064673,5.36414118 C12.6075827,5.37072941 12.6120442,5.37567059 12.6137173,5.38225882 C12.6382558,5.48218039 12.6784096,5.57661176 12.7313904,5.66500392 C12.7419865,5.68202353 12.752025,5.6979451 12.7631788,5.71441569 C12.8189481,5.79676863 12.8853135,5.87088627 12.9639481,5.93457255 C12.976775,5.94500392 12.9901596,5.9526902 13.0029865,5.96202353 C13.0788327,6.01802353 13.1624865,6.06523922 13.2550635,6.09982745 C13.2662173,6.10367059 13.2756981,6.1097098 13.2862942,6.11355294 C13.2901981,6.11465098 13.2929865,6.11684706 13.2968904,6.1179451 L26.9062558,10.5567686 C27.0150058,10.5924549 27.1254288,10.6094745 27.2341788,10.6094745 C27.6714096,10.6094745 28.078525,10.3366118 28.223525,9.90563137 C28.404775,9.36704314 28.1086404,8.78618039 27.5621019,8.60829804 L17.5554288,5.34492549 L27.7784865,3.13457255 C28.3406404,3.01323922 28.6964481,2.46531765 28.5731981,1.91190588" id="Fill-6"></path>
                            </g>
                        </g>
                    </g>
                </g>
            </g>
        </g>
    </g>
</svg>