<?xml version="1.0" encoding="UTF-8" standalone="no"?>
<svg width="31px" height="25px" viewBox="0 0 31 25" version="1.1" xmlns="http://www.w3.org/2000/svg" xmlns:xlink="http://www.w3.org/1999/xlink">
    <!-- Generator: Sketch 39.1 (31720) - http://www.bohemiancoding.com/sketch -->
    <title>Page 1</title>
    <desc>Created with Sketch.</desc>
    <defs></defs>
    <g id="Desktop" stroke="none" stroke-width="1" fill="none" fill-rule="evenodd">
        <g id="Educanada-World" transform="translate(-964.000000, -7824.000000)" fill="#FF0000">
            <g id="Why-Canada" transform="translate(0.000000, 4364.000000)">
                <g id="Images" transform="translate(175.000000, 3170.000000)">
                    <g id="Group-16">
                        <g id="Group-5-Copy-12" transform="translate(781.000000, 281.000000)">
                            <g id="Page-1" transform="translate(8.000000, 9.000000)">
                                <path d="M29.9821985,17.0404662 C29.2458292,17.0372028 28.7913215,16.1141259 28.1102754,14.607366 C27.3514908,12.9295105 26.40766,10.8404662 24.27486,9.82601399 C22.84886,9.14769231 20.1227677,8.82741259 17.4868138,8.51692308 C15.5710138,8.29128205 13.5908292,8.05771562 12.6989831,7.72857809 C11.3011215,7.21249417 8.46533692,3.25958042 7.00595231,0.888951049 C6.75127538,0.476363636 6.20138308,0.343030303 5.77930615,0.591048951 C5.73161385,0.619020979 5.68916769,0.651655012 5.64910615,0.686153846 C5.49219846,0.764941725 5.35722923,0.888951049 5.26852154,1.05305361 L4.55695231,2.36261072 L0.91326,2.28615385 C0.644752308,2.28708625 0.390075385,2.39151515 0.215998462,2.59058275 C0.0419215385,2.78871795 -0.0329553846,3.05258741 0.0133061538,3.31039627 L0.427752308,5.62601399 C0.469244615,5.85818182 0.605167692,6.06377622 0.804044615,6.19664336 C2.14753692,7.09407925 3.71613692,8.27589744 4.13439846,8.75981352 C4.12962923,8.79664336 4.12390615,8.8372028 4.11866,8.88149184 C3.69753692,12.1006061 4.07144462,16.0553846 8.06662923,17.0707692 L9.49406,23.4805594 C9.58515231,23.8898834 9.95572154,24.1691375 10.3668292,24.1691375 C10.4297831,24.1691375 10.4941677,24.1621445 10.5575985,24.1490909 C11.0402446,24.0460606 11.3464292,23.5803263 11.2415062,23.1094639 L9.69102923,16.1490909 C9.61329077,15.8008392 9.32666,15.5332401 8.96753692,15.4735664 C6.35781385,15.0386014 5.38059846,13.014359 5.89186,9.10340326 C5.92286,8.86564103 5.94146,8.72205128 5.94146,8.59804196 C5.94146,8.22834499 5.94146,7.54815851 2.12464462,4.96307692 L1.96201385,4.05585082 L5.06964462,4.12111888 C5.40682923,4.12344988 5.71969077,3.94909091 5.87802923,3.65724942 L6.24001385,2.99058275 C7.58350615,5.03114219 10.1836908,8.66843823 12.0675369,9.36400932 C13.1615985,9.76773893 15.1584754,10.0031702 17.2731523,10.251655 C19.6463215,10.5313753 22.3366446,10.8483916 23.4927062,11.3975758 C25.0369831,12.1323077 25.7676292,13.7495571 26.4749062,15.3136597 C27.2451369,17.0180886 28.0415985,18.7803263 29.9745677,18.7877855 L29.9783831,18.7877855 C30.4705677,18.7877855 30.8702292,18.3989744 30.8721369,17.9178555 C30.8745215,17.435338 30.4758138,17.042331 29.9821985,17.0404662" id="Fill-1"></path>
                                <path d="M26.5487338,19.3928671 C26.5186877,19.3341259 26.4810108,19.2791142 26.4380877,19.2278322 C26.1614723,18.9047552 25.4942569,18.5178089 23.6571492,17.4954312 C23.3471492,17.3234033 23.0271338,17.1448485 22.7075954,16.9653613 C21.1518723,16.0884382 18.6914262,14.3010256 18.6671031,14.28331 C18.4586877,14.1317949 18.1925646,14.0744522 17.9397954,14.1308625 L12.8615185,15.2301632 C12.3793492,15.3345921 12.0750723,15.8012587 12.1819031,16.2725874 C12.2887338,16.7439161 12.7670877,17.0404196 13.2478262,16.9364569 L17.9302569,15.9234033 C18.67378,16.4544056 20.5032569,17.7406527 21.8157492,18.4800466 C22.1381492,18.6613986 22.4605492,18.8404196 22.77198,19.0143124 C23.6557185,19.5056876 24.7426262,20.1108159 25.0221031,20.3145455 L26.4528723,23.0725874 C26.6102569,23.3760839 26.9245492,23.5513753 27.2512415,23.5513753 C27.3866877,23.5513753 27.5249954,23.5206061 27.6542415,23.4567366 C28.0949185,23.2385548 28.2704262,22.7122145 28.0477031,22.2819114 L26.5487338,19.3928671 Z" id="Fill-4"></path>
                            </g>
                        </g>
                    </g>
                </g>
            </g>
        </g>
    </g>
</svg>