<?xml version="1.0" encoding="UTF-8" standalone="no"?>
<svg width="29px" height="36px" viewBox="0 0 29 36" version="1.1" xmlns="http://www.w3.org/2000/svg" xmlns:xlink="http://www.w3.org/1999/xlink">
    <!-- Generator: Sketch 39.1 (31720) - http://www.bohemiancoding.com/sketch -->
    <title>Page 1</title>
    <desc>Created with Sketch.</desc>
    <defs></defs>
    <g id="Desktop" stroke="none" stroke-width="1" fill="none" fill-rule="evenodd">
        <g id="Educanada-World" transform="translate(-964.000000, -7710.000000)" fill="#FF0000">
            <g id="Why-Canada" transform="translate(0.000000, 4364.000000)">
                <g id="Images" transform="translate(175.000000, 3170.000000)">
                    <g id="Group-16">
                        <g id="Group-5-Copy-10" transform="translate(781.000000, 171.000000)">
                            <g id="Page-1" transform="translate(8.000000, 5.000000)">
                                <path d="M14.4278702,3.48418983 C15.6687,4.9827661 17.8856574,8.17029153 17.8856574,11.8508339 C17.8856574,13.392122 17.0563809,14.9108339 16.0962957,16.6699525 C15.524934,17.7170034 14.9264234,18.8323932 14.4260191,20.0606644 C13.9256149,18.8323932 13.3271043,17.7170034 12.7557426,16.6699525 C11.7956574,14.9108339 10.9663809,13.392122 10.9663809,11.8508339 C10.9663809,8.18554576 13.1870404,4.98764746 14.4278702,3.48418983 M10.7201894,17.7560542 C11.9597851,20.0271051 13.2407213,22.3750373 13.2407213,25.5656136 C13.2407213,26.197139 13.7590191,26.7090712 14.3976362,26.7090712 C14.4075085,26.7090712 14.4161468,26.7066305 14.4260191,26.7060203 C14.4358915,26.7066305 14.4445298,26.7090712 14.4544021,26.7090712 C15.0930191,26.7090712 15.611317,26.197139 15.611317,25.5656136 C15.611317,22.3750373 16.8922532,20.0271051 18.1318489,17.7560542 C19.1949766,15.8090034 20.1988702,13.9699525 20.1988702,11.8508339 C20.1988702,6.23117288 16.0648277,1.78364746 15.3336574,1.04107119 C15.3095936,1.01117288 15.2886149,0.979444068 15.2608489,0.951376271 C15.0837638,0.77259661 14.8610191,0.666427119 14.6290191,0.627376271 C14.6209979,0.626155932 14.6135936,0.626155932 14.6055723,0.624935593 C14.5463383,0.61639322 14.4871043,0.609681356 14.4272532,0.610291525 C14.3599979,0.609681356 14.2927426,0.61639322 14.2261043,0.627376271 C14.2261043,0.627376271 14.2261043,0.627376271 14.2254872,0.627376271 C13.9928702,0.665816949 13.7688915,0.771986441 13.5911894,0.951376271 C13.5634234,0.979444068 13.5430617,1.01056271 13.5189979,1.04046102 C12.7896787,1.78181695 8.65316809,6.22995254 8.65316809,11.8508339 C8.65316809,13.9699525 9.6570617,15.8090034 10.7201894,17.7560542" id="Fill-1"></path>
                                <path d="M20.2373106,27.8561288 L8.82488511,27.8561288 C8.09124681,27.8561288 7.49767234,28.443722 7.49767234,29.1686034 C7.49767234,29.8940949 8.09124681,30.4816881 8.82488511,30.4816881 L12.2937787,30.4816881 C12.041417,30.7556542 11.7366085,31.0345017 11.3583745,31.2834508 C10.8265021,31.6336881 10.6833532,32.3439254 11.0375234,32.8698915 C11.2602681,33.2006034 11.6267787,33.3793831 12.0006936,33.3793831 C12.2209702,33.3793831 12.4443319,33.3165356 12.6411617,33.1865695 C12.8342894,33.0596542 13.0119915,32.9254169 13.1816723,32.7893492 L13.1816723,34.5417559 C13.1816723,35.1732814 13.6993532,35.6852136 14.3379702,35.6852136 C14.9772043,35.6852136 15.4948851,35.1732814 15.4948851,34.5417559 L15.4948851,32.8222983 C15.6528426,32.9467729 15.8163532,33.0694169 15.9940553,33.1865695 C16.1908851,33.3165356 16.4142468,33.3793831 16.6345234,33.3793831 C17.0084383,33.3793831 17.3749489,33.2006034 17.5976936,32.8698915 C17.9518638,32.3439254 17.8087149,31.6336881 17.2768426,31.2834508 C16.9004596,31.0351119 16.5962681,30.7562644 16.3439064,30.4816881 L20.2373106,30.4816881 C20.9703319,30.4816881 21.5645234,29.8940949 21.5645234,29.1686034 C21.5645234,28.443722 20.9703319,27.8561288 20.2373106,27.8561288" id="Fill-4"></path>
                                <path d="M8.65915319,25.5537153 C8.65915319,26.2785966 9.25334468,26.8661898 9.98636596,26.8661898 C10.7200043,26.8661898 11.3141957,26.2785966 11.3141957,25.5537153 C11.3141957,23.4236136 9.5612383,21.6907322 7.4066,21.6907322 C5.73200426,21.6907322 4.29989787,22.7383932 3.74581277,24.2058508 C3.50517447,23.9086983 3.29600426,23.5761559 3.12508936,23.2161559 C2.64874894,22.2118169 2.52904681,21.1269356 2.78881277,20.1598169 C3.02636596,19.2769017 3.5582383,18.6038847 4.28755745,18.2658508 C5.27540851,17.8088339 6.48477021,18.0187322 7.52321702,18.8290373 C8.09951489,19.2787322 8.93434468,19.1823254 9.38785532,18.6124271 C9.84198298,18.043139 9.7438766,17.2181898 9.16881277,16.7691051 C7.34983404,15.3486305 5.04649362,15.0124271 3.15964255,15.8886305 C1.70840851,16.5622576 0.665642553,17.8387322 0.223238298,19.4855797 C-0.196953191,21.0482237 -0.0198680851,22.7695119 0.721174468,24.3309356 C1.54798298,26.0735797 2.99551489,27.4177831 4.69417447,28.0188 C4.83979149,28.0706644 4.99034468,28.0950712 5.13904681,28.0950712 C5.53579149,28.0950712 5.92328085,27.9187322 6.18057872,27.6002237 C6.5162383,27.1853085 6.5656,26.6117492 6.30706809,26.1468 C6.20649362,25.9661898 6.15528085,25.7666644 6.15528085,25.5537153 C6.15528085,24.8715458 6.71677021,24.3162915 7.4066,24.3162915 C8.09704681,24.3162915 8.65915319,24.8715458 8.65915319,25.5537153" id="Fill-6"></path>
                                <path d="M28.5846213,19.4853966 C28.142217,17.8397695 27.0994511,16.5620746 25.648834,15.8890576 C23.7595149,15.0116339 21.4567915,15.3496678 19.6390468,16.768922 C19.063366,17.2180068 18.9652596,18.0435661 19.4193872,18.6122441 C19.8741319,19.1815322 20.7089617,19.277939 21.2840255,18.8294644 C22.3237064,18.0191593 23.5330681,17.8068203 24.5209191,18.266278 C25.2490043,18.6043119 25.7814936,19.2767186 26.0184298,20.1596339 C26.2781957,21.1267525 26.1591106,22.2122441 25.6821532,23.2159729 C25.5118553,23.5759729 25.3020681,23.9085153 25.0620468,24.2056678 C24.5079617,22.7382102 23.0758553,21.6905492 21.4006426,21.6905492 C19.2460043,21.6905492 17.4936638,23.4234305 17.4936638,25.5535322 C17.4936638,26.2790237 18.0878553,26.8666169 18.8208766,26.8666169 C19.5545149,26.8666169 20.1487064,26.2790237 20.1487064,25.5535322 C20.1487064,24.8713627 20.7101957,24.3161085 21.4006426,24.3161085 C22.0910894,24.3161085 22.6525787,24.8713627 22.6525787,25.5535322 C22.6525787,25.7664814 22.601366,25.9660068 22.5001745,26.1472271 C22.2416426,26.6127864 22.2940894,27.1887864 22.6291319,27.6030915 C22.8864298,27.9203797 23.270834,28.0954983 23.6663447,28.0954983 C23.8156638,28.0954983 23.966834,28.0704814 24.1130681,28.0186169 C25.8117277,27.4176 27.2598766,26.0740068 28.0860681,24.3313627 C28.8277277,22.769939 29.0048128,21.0486508 28.5846213,19.4853966" id="Fill-8"></path>
                            </g>
                        </g>
                    </g>
                </g>
            </g>
        </g>
    </g>
</svg>