<?xml version="1.0" encoding="UTF-8" standalone="no"?>
<svg width="29px" height="28px" viewBox="0 0 29 28" version="1.1" xmlns="http://www.w3.org/2000/svg" xmlns:xlink="http://www.w3.org/1999/xlink">
    <!-- Generator: Sketch 39.1 (31720) - http://www.bohemiancoding.com/sketch -->
    <title>Page 1</title>
    <desc>Created with Sketch.</desc>
    <defs></defs>
    <g id="Desktop" stroke="none" stroke-width="1" fill="none" fill-rule="evenodd">
        <g id="Educanada-World" transform="translate(-964.000000, -7769.000000)" fill="#FF0000">
            <g id="Why-Canada" transform="translate(0.000000, 4364.000000)">
                <g id="Images" transform="translate(175.000000, 3170.000000)">
                    <g id="Group-16">
                        <g id="Group-5-Copy-11" transform="translate(781.000000, 226.000000)">
                            <g id="Page-1" transform="translate(8.000000, 9.000000)">
                                <path d="M5.44653462,17.1497255 C5.72816923,16.1159216 6.36170769,15.2429804 7.33209231,14.5512157 C7.83122692,15.511451 7.93495769,16.5996078 7.62878462,17.725098 C7.47988077,18.2741176 7.81003462,18.8385098 8.36772692,18.9856471 C8.92988077,19.1355294 9.49928462,18.8066667 9.64818846,18.2581961 C9.75582308,17.8623529 9.82051538,17.4659608 9.85620769,17.0717647 C9.88186154,17.0739608 9.9064,17.0827451 9.93261154,17.0827451 C10.0781692,17.0827451 10.2254,17.052549 10.3664962,16.9894118 C10.8918423,16.7527843 11.1227269,16.1422745 10.8829192,15.6256471 C10.3190923,14.4112157 10.1785538,13.2615686 10.4652077,12.209098 C10.7468423,11.1752941 11.3803808,10.302902 12.3502077,9.61113725 C12.8499,10.5713725 12.9530731,11.6600784 12.6469,12.7850196 C12.4974385,13.3340392 12.82815,13.8984314 13.3858423,14.0455686 C13.9474385,14.196 14.5174,13.8665882 14.6663038,13.3181176 C14.7828615,12.8898824 14.8531308,12.460549 14.8854769,12.0339608 C14.9367846,12.0416471 14.9864192,12.0559216 15.0388423,12.0559216 C15.1844,12.0559216 15.3321885,12.0257255 15.4732846,11.9625882 C15.9980731,11.7259608 16.2289577,11.115451 15.98915,10.5982745 C15.4258808,9.38384314 15.2847846,8.2347451 15.5708808,7.18227451 C15.8525154,6.14847059 16.4866115,5.27607843 17.4569962,4.58376471 C17.9566885,5.544 18.0598615,6.63270588 17.7531308,7.75819608 C17.6036692,8.30721569 17.9349385,8.87105882 18.4926308,9.01819608 C19.0508808,9.16862745 19.6236308,8.83976471 19.7725346,8.2907451 C20.2644192,6.48611765 19.9972846,4.66007843 19.0246692,3.14368627 L19.6135923,2.64627451 C20.0513808,2.27623529 20.1021308,1.6267451 19.7262462,1.19466667 C19.3509192,0.764235294 18.6906115,0.71427451 18.2522654,1.08376471 L16.0270731,2.96305882 C15.9211115,3.05254902 15.8391308,3.1585098 15.7794577,3.27380392 C14.6746692,4.19176471 13.9089577,5.33921569 13.5514769,6.64917647 C13.4633615,6.97309804 13.40815,7.30196078 13.3735731,7.63301961 C12.8487846,7.31019608 12.1661692,7.28109804 11.6123808,7.62039216 C9.99116923,8.61796078 8.89641923,10.0207059 8.44580385,11.676 C8.36884231,11.9587451 8.31920769,12.2447843 8.28295769,12.5330196 C7.76820769,12.2502745 7.1224,12.236 6.59426538,12.5604706 C4.97249615,13.5585882 3.87774615,14.9613333 3.42713077,16.6166275 C3.01109231,18.143451 3.19178462,19.7597647 3.96307308,21.421098 C4.13874615,21.7999216 4.51797692,22.0228235 4.91449615,22.0228235 C5.06005385,22.0228235 5.20728462,21.9926275 5.34838077,21.9294902 C5.87372692,21.6928627 6.10461154,21.0823529 5.86480385,20.5657255 C5.30041923,19.3512941 5.15988077,18.2016471 5.44653462,17.1497255" id="Fill-1"></path>
                                <path d="M28.4998058,0.907529412 C28.1239212,0.477098039 27.4647288,0.427137255 27.0252673,0.796627451 L25.3834212,2.18345098 C25.3705942,2.18180392 25.3594404,2.17741176 25.3466135,2.17631373 C23.516825,1.99678431 21.7305365,2.59741176 20.3112096,3.85686275 C19.8829019,4.23733333 19.8477673,4.88792157 20.2348058,5.31066667 C20.6212865,5.73231373 21.2821519,5.76635294 21.7110173,5.38588235 C22.5882673,4.60737255 23.6177673,4.20329412 24.7108442,4.20329412 L24.7180942,4.20329412 C24.5329404,5.36996078 24.0310173,6.32141176 23.2240365,7.03788235 C22.8046519,7.40956863 22.7656135,8.03764706 23.1242096,8.46039216 C22.1326327,8.2654902 21.0897481,8.29184314 20.0524404,8.56580392 C19.4947481,8.71294118 19.1634788,9.27733333 19.3129404,9.82635294 C19.4624019,10.3753725 20.0357096,10.7025882 20.5934019,10.5538039 C21.7355558,10.2523922 22.8414596,10.3539608 23.8174212,10.8464314 C23.1147288,11.8011765 22.2285558,12.4248627 21.1778635,12.7015686 C20.1076519,12.9837647 18.9415173,12.8459608 17.7079019,12.2903529 C17.1819981,12.0548235 16.5629596,12.2821176 16.3225942,12.7987451 C16.2350365,12.9870588 16.2121712,13.188 16.2411712,13.3785098 C15.8106327,13.4103529 15.3778635,13.4789804 14.9456519,13.5926275 C14.3879596,13.7403137 14.0572481,14.3041569 14.2067096,14.8531765 C14.3561712,15.4021961 14.9289212,15.7299608 15.4871712,15.5811765 C16.6298827,15.2797647 17.7352288,15.3802353 18.7111904,15.8732549 C18.0084981,16.828 17.122325,17.4516863 16.0716327,17.7289412 C15.0019788,18.0105882 13.8352865,17.8727843 12.6016712,17.3177255 C12.0757673,17.0816471 11.4561712,17.3089412 11.2163635,17.8255686 C11.1405173,17.9891765 11.1165365,18.1615686 11.1293635,18.3290196 C10.7300558,18.3636078 10.3285173,18.4272941 9.92753654,18.5332549 C9.36984423,18.6798431 9.03913269,19.2442353 9.18859423,19.7932549 C9.33805577,20.3417255 9.90801731,20.6694902 10.4690558,20.5212549 C11.6112096,20.2209412 12.7171135,20.3214118 13.6925173,20.8133333 C12.9892673,21.7686275 12.1036519,22.3923137 11.0535173,22.6695686 C9.98442115,22.9517647 8.81661346,22.8128627 7.58299808,22.2578039 C7.05765192,22.0217255 6.43749808,22.2490196 6.19769038,22.7656471 C5.95788269,23.2828235 6.18876731,23.8933333 6.71411346,24.1299608 C7.81220962,24.6240784 8.89190192,24.8716863 9.93869038,24.8716863 C10.5008442,24.8716863 11.0535173,24.8008627 11.5950365,24.6575686 C13.2764788,24.2139608 14.7013827,23.1356863 15.7152673,21.5396863 C16.0448635,21.0208627 16.0303635,20.3861961 15.7453827,19.880549 C16.0370558,19.8454118 16.3264981,19.7921569 16.6131519,19.7169412 C18.2945942,19.2733333 19.7200558,18.1950588 20.7333827,16.5996078 C21.0797096,16.0538824 21.0484788,15.3791373 20.7188827,14.8625098 C21.0557288,14.8284706 21.3897865,14.7768627 21.7193827,14.6901176 C22.9507673,14.365098 24.0427288,13.6969412 24.9383827,12.7372549 C25.0170173,12.6999216 25.0934212,12.655451 25.1631327,12.5967059 L27.3888827,10.7174118 C27.8266712,10.3473725 27.8774212,9.69788235 27.5015365,9.26635294 C27.1256519,8.83537255 26.4664596,8.78596078 26.0269981,9.15490196 L25.5819596,9.53152941 C25.5010942,9.45356863 25.4118635,9.3827451 25.3131519,9.32070588 C24.9690558,9.10384314 24.6065558,8.92815686 24.2340173,8.78156863 C24.3739981,8.7387451 24.5078442,8.67011765 24.6238442,8.56690196 C25.916575,7.41945098 26.6878635,5.82235294 26.8546135,3.94635294 C26.8629788,3.84807843 26.859075,3.752 26.8501519,3.65647059 L28.3871519,2.35913725 C28.8249404,1.98909804 28.8756904,1.33905882 28.4998058,0.907529412" id="Fill-3"></path>
                                <path d="M3.47503654,22.8822588 L0.305671154,26.0045333 C-0.102001923,26.4069647 -0.102001923,27.058651 0.306228846,27.4605333 C0.510901923,27.6609255 0.778036538,27.7613961 1.04572885,27.7613961 C1.31286346,27.7613961 1.58111346,27.6609255 1.78522885,27.4599843 L4.95403654,24.3371608 C5.36226731,23.9352784 5.36226731,23.2830431 4.95347885,22.8817098 C4.54524808,22.4809255 3.88326731,22.4803765 3.47503654,22.8822588" id="Fill-5"></path>
                            </g>
                        </g>
                    </g>
                </g>
            </g>
        </g>
    </g>
</svg>