<svg xmlns="http://www.w3.org/2000/svg" width="45" height="45" viewBox="0 0 45 45">
    <g fill="none" fill-rule="evenodd">
        <circle cx="22.5" cy="22.5" r="22.5" fill="#4591C2" fill-rule="nonzero"/>
        <path fill="#FFF" d="M18.177 34c9.812 0 15.177-8.078 15.177-15.083 0-.23-.005-.459-.015-.686A10.821 10.821 0 0 0 36 15.486c-.956.422-1.984.706-3.063.835a5.325 5.325 0 0 0 2.345-2.933 10.732 10.732 0 0 1-3.387 1.287A5.344 5.344 0 0 0 28.001 13c-2.946 0-5.335 2.374-5.335 5.301 0 .416.047.82.139 1.209a15.175 15.175 0 0 1-10.995-5.54 5.289 5.289 0 0 0 1.651 7.077 5.319 5.319 0 0 1-2.416-.662l-.001.068c0 2.567 1.839 4.71 4.28 5.197a5.382 5.382 0 0 1-2.41.09 5.336 5.336 0 0 0 4.984 3.683 10.747 10.747 0 0 1-6.625 2.27c-.431 0-.855-.025-1.273-.074A15.169 15.169 0 0 0 18.177 34"/>
    </g>
</svg>
