<svg xmlns="http://www.w3.org/2000/svg" width="40" height="40" viewBox="0 0 40 40">
    <g fill="none" fill-rule="evenodd">
        <circle cx="20" cy="20" r="20" fill="#37589B"/>
        <path fill="#FFF" d="M17.706 24.787c0-1.337-.005-2.674.005-4.01.001-.225-.06-.296-.278-.286-.403.017-.807-.002-1.211.008-.163.004-.224-.043-.222-.22.009-.836.008-1.67.001-2.504-.001-.16.046-.213.203-.21.412.01.826-.012 1.237.01.239.011.288-.076.284-.305a41.718 41.718 0 0 1-.001-1.905c.016-.775.217-1.499.664-2.128.566-.8 1.369-1.164 2.297-1.207.952-.043 1.907-.019 2.86-.03.133-.002.173.048.172.181-.004.843-.005 1.688.001 2.531.001.15-.046.196-.189.193-.458-.007-.917-.004-1.375-.003-.611.002-.976.327-1.014.951-.031.501-.009 1.005-.02 1.507-.004.178.099.167.213.166.697 0 1.394.008 2.091-.005.205-.003.272.045.249.268-.088.838-.163 1.678-.233 2.517-.016.19-.099.227-.264.224-.55-.01-1.1-.006-1.65-.003-.396.003-.357-.06-.357.356-.002 2.616-.005 5.233.005 7.85.001.275-.067.344-.331.34a72.363 72.363 0 0 0-2.834 0c-.266.004-.31-.089-.308-.334.01-1.318.005-2.635.005-3.952"/>
    </g>
</svg>
