<?xml version="1.0" encoding="UTF-8" standalone="no"?>
<!-- Created with Inkscape (http://www.inkscape.org/) -->

<svg
   xmlns:dc="http://purl.org/dc/elements/1.1/"
   xmlns:cc="http://creativecommons.org/ns#"
   xmlns:rdf="http://www.w3.org/1999/02/22-rdf-syntax-ns#"
   xmlns:svg="http://www.w3.org/2000/svg"
   xmlns="http://www.w3.org/2000/svg"
   xmlns:sodipodi="http://sodipodi.sourceforge.net/DTD/sodipodi-0.dtd"
   xmlns:inkscape="http://www.inkscape.org/namespaces/inkscape"
   width="26.22625"
   height="26.179251"
   id="svg7789"
   version="1.1"
   inkscape:version="0.48.3.1 r9886"
   sodipodi:docname="Novo documento 47">
  <defs
     id="defs7791">
    <clipPath
       clipPathUnits="userSpaceOnUse"
       id="clipPath3236">
      <path
         inkscape:connector-curvature="0"
         d="m 1187.495,89.14285 6.129,0 0,-9.34294 c 0,-2.27582 -1.858,-4.12066 -4.15,-4.12066 l -12.682,0 c -2.291,0 -4.149,1.84489 -4.149,4.12066 l 0,9.34294 6.101,0 c -0.624,-0.87134 -0.993,-1.9361 -0.993,-3.08707 0,-2.94422 2.404,-5.33101 5.369,-5.33101 2.965,0 5.368,2.38679 5.368,5.33101 0,1.15103 -0.368,2.21578 -0.993,3.08707 l 0,0 z m 6.129,3.35913 0,-2.70633 -6.68,0 c -0.973,0.98185 -2.327,1.59119 -3.824,1.59119 -1.498,0 -2.851,-0.60929 -3.825,-1.59119 l -6.652,0 0,2.70633 c 0,1.38887 0.692,2.61635 1.753,3.36284 l 0,-4.43721 0.85,0 0,4.89832 c 0.193,0.07706 0.394,0.13989 0.6,0.18762 l 0,-5.08599 0.85,0 0,5.19269 c 0.032,7.6e-4 0.064,0.0024 0.096,0.0024 l 0.492,0 0,-5.19498 0.85,0 0,5.19498 11.34,0 c 2.292,0 4.15,-1.84485 4.15,-4.12066 l 0,0 z m -1.897,1.73672 c 0,0.36504 -0.298,0.66094 -0.665,0.66094 l -2.244,0 c -0.367,0 -0.665,-0.2959 -0.665,-0.66094 l 0,-2.27657 c 0,-0.36504 0.298,-0.66094 0.665,-0.66094 l 2.244,0 c 0.367,0 0.665,0.2959 0.665,0.66094 l 0,2.27657 0,0 z m -12.743,-8.18292 c 0,1.22956 0.547,2.33372 1.412,3.08707 0.303,0.26418 0.646,0.4849 1.018,0.6528 0.52,0.23511 1.097,0.36722 1.706,0.36722 0.608,0 1.185,-0.13211 1.706,-0.36722 0.371,-0.1679 0.714,-0.38862 1.017,-0.6528 0.865,-0.75335 1.413,-1.85756 1.413,-3.08707 0,-2.26463 -1.856,-4.10704 -4.136,-4.10704 -2.281,0 -4.136,1.84241 -4.136,4.10704 l 0,0 z m 1.092,0 c 0,-1.67643 1.369,-3.03537 3.057,-3.03537 1.689,0 3.057,1.35894 3.057,3.03537 0,1.67649 -1.368,3.03542 -3.057,3.03542 -1.688,0 -3.057,-1.35893 -3.057,-3.03542 l 0,0 z"
         clip-rule="evenodd"
         id="path3238" />
    </clipPath>
    <clipPath
       clipPathUnits="userSpaceOnUse"
       id="clipPath3242">
      <path
         inkscape:connector-curvature="0"
         d="m 0,0 1440,0 0,6076 L 0,6076 0,0 z"
         id="path3244" />
    </clipPath>
  </defs>
  <sodipodi:namedview
     id="base"
     pagecolor="#ffffff"
     bordercolor="#666666"
     borderopacity="1.0"
     inkscape:pageopacity="0.0"
     inkscape:pageshadow="2"
     inkscape:zoom="0.35"
     inkscape:cx="13.11315"
     inkscape:cy="13.089625"
     inkscape:document-units="px"
     inkscape:current-layer="layer1"
     showgrid="false"
     fit-margin-top="0"
     fit-margin-left="0"
     fit-margin-right="0"
     fit-margin-bottom="0"
     inkscape:window-width="486"
     inkscape:window-height="383"
     inkscape:window-x="0"
     inkscape:window-y="24"
     inkscape:window-maximized="0" />
  <metadata
     id="metadata7794">
    <rdf:RDF>
      <cc:Work
         rdf:about="">
        <dc:format>image/svg+xml</dc:format>
        <dc:type
           rdf:resource="http://purl.org/dc/dcmitype/StillImage" />
        <dc:title></dc:title>
      </cc:Work>
    </rdf:RDF>
  </metadata>
  <g
     inkscape:label="Camada 1"
     inkscape:groupmode="layer"
     id="layer1"
     transform="translate(-336.88685,-519.27256)">
    <g
       transform="matrix(1.25,0,0,-1.25,-1128.9169,640.05087)"
       id="g3232">
      <g
         id="g3234"
         clip-path="url(#clipPath3236)">
        <g
           id="g3240"
           clip-path="url(#clipPath3242)">
          <path
             inkscape:connector-curvature="0"
             d="m 1167.643,101.6226 30.981,0 0,-30.94335 -30.981,0 0,30.94335 z"
             style="fill:#fff;fill-opacity:1;fill-rule:nonzero;stroke:none"
             id="path3246" />
        </g>
      </g>
    </g>
  </g>
</svg>
