<?xml version="1.0" encoding="UTF-8" standalone="no"?>
<!-- Created with Inkscape (http://www.inkscape.org/) -->

<svg
   xmlns:dc="http://purl.org/dc/elements/1.1/"
   xmlns:cc="http://creativecommons.org/ns#"
   xmlns:rdf="http://www.w3.org/1999/02/22-rdf-syntax-ns#"
   xmlns:svg="http://www.w3.org/2000/svg"
   xmlns="http://www.w3.org/2000/svg"
   xmlns:sodipodi="http://sodipodi.sourceforge.net/DTD/sodipodi-0.dtd"
   xmlns:inkscape="http://www.inkscape.org/namespaces/inkscape"
   width="40"
   height="40"
   id="svg7593"
   version="1.1"
   inkscape:version="0.48.3.1 r9886"
   sodipodi:docname="Novo documento 3">
  <defs
     id="defs7595">
    <clipPath
       clipPathUnits="userSpaceOnUse"
       id="clipPath4508">
      <path
         inkscape:connector-curvature="0"
         d="m 119,8832.998 c 0,1.106 0.8893,2.002 2.0017,2.002 l 27.9966,0 c 1.1055,0 2.0017,-0.889 2.0017,-2.002 l 0,-27.996 c 0,-1.106 -0.8893,-2.002 -2.0017,-2.002 l -27.9966,0 c -1.1055,0 -2.0017,0.889 -2.0017,2.002 l 0,27.996 z"
         clip-rule="evenodd"
         id="path4510" />
    </clipPath>
    <clipPath
       clipPathUnits="userSpaceOnUse"
       id="clipPath4514">
      <path
         inkscape:connector-curvature="0"
         d="M 0,0 414,0 414,9200 0,9200 0,0 z"
         id="path4516" />
    </clipPath>
    <clipPath
       clipPathUnits="userSpaceOnUse"
       id="clipPath4524">
      <path
         inkscape:connector-curvature="0"
         d="m 135.22,8825.096 c 0,-2.058 -1.186,-3.032 -2.37,-3.948 -0.368,-0.362 -0.79,-0.752 -0.79,-1.366 0,-0.61 0.422,-0.944 0.732,-1.196 l 1.018,-0.776 c 1.242,-1.03 2.37,-1.976 2.37,-3.896 0,-2.616 -2.65,-5.278 -7.504,-5.278 -4.096,0 -5.99,1.938 -5.99,3.998 0,1.002 0.506,2.42 2.174,3.394 1.75,1.058 4.122,1.196 5.392,1.28 -0.396,0.502 -0.848,1.03 -0.848,1.89 0,0.474 0.142,0.752 0.284,1.086 -0.312,-0.028 -0.622,-0.054 -0.904,-0.054 -2.992,0 -4.688,2.198 -4.688,4.366 0,1.278 0.4,2.79 1.612,3.82 1.61,1.306 3.668,1.464 5.192,1.464 l 5.886,0 -1.828,-1.118 -1.672,0 c 0.648,-0.528 1.934,-1.548 1.934,-3.664 z m -4.651,-8.696 c -0.254,0 -1.78,-0.05 -2.966,-0.401 -0.62,-0.199 -2.428,-0.795 -2.428,-2.563 0,-1.769 1.95,-3.038 4.97,-3.038 2.71,0 4.152,1.148 4.152,2.689 0,1.271 -0.932,1.942 -3.08,3.286 -0.226,0.027 -0.366,0.027 -0.648,0.027 z m -1.38,12.46 c -0.736,0 -1.524,-0.261 -1.978,-0.759 -0.48,-0.524 -0.62,-1.258 -0.62,-1.906 0,-1.667 1.102,-4.43 3.53,-4.43 0.706,0 1.466,0.36 1.918,0.759 0.65,0.574 0.706,1.306 0.706,1.754 0,1.793 -1.214,4.582 -3.556,4.582 z"
         clip-rule="evenodd"
         id="path4526" />
    </clipPath>
    <clipPath
       clipPathUnits="userSpaceOnUse"
       id="clipPath4530">
      <path
         inkscape:connector-curvature="0"
         d="M 0,0 414,0 414,9200 0,9200 0,0 z"
         id="path4532" />
    </clipPath>
    <clipPath
       clipPathUnits="userSpaceOnUse"
       id="clipPath4540">
      <path
         inkscape:connector-curvature="0"
         d="M 0,0 414,0 414,9200 0,9200 0,0 z"
         id="path4542" />
    </clipPath>
  </defs>
  <sodipodi:namedview
     id="base"
     pagecolor="#ffffff"
     bordercolor="#666666"
     borderopacity="1.0"
     inkscape:pageopacity="0.0"
     inkscape:pageshadow="2"
     inkscape:zoom="0.35"
     inkscape:cx="78.57143"
     inkscape:cy="348.57182"
     inkscape:document-units="px"
     inkscape:current-layer="layer1"
     showgrid="false"
     fit-margin-top="0"
     fit-margin-left="0"
     fit-margin-right="0"
     fit-margin-bottom="0"
     inkscape:window-width="486"
     inkscape:window-height="383"
     inkscape:window-x="685"
     inkscape:window-y="24"
     inkscape:window-maximized="0" />
  <metadata
     id="metadata7598">
    <rdf:RDF>
      <cc:Work
         rdf:about="">
        <dc:format>image/svg+xml</dc:format>
        <dc:type
           rdf:resource="http://purl.org/dc/dcmitype/StillImage" />
        <dc:title></dc:title>
      </cc:Work>
    </rdf:RDF>
  </metadata>
  <g
     inkscape:label="Camada 1"
     inkscape:groupmode="layer"
     id="layer1"
     transform="translate(-271.42857,-840.934)">
    <g
       transform="matrix(1.25,0,0,-1.25,122.67857,11884.684)"
       id="g4504">
      <g
         id="g4506"
         clip-path="url(#clipPath4508)">
        <g
           id="g4512"
           clip-path="url(#clipPath4514)">
          <path
             inkscape:connector-curvature="0"
             d="m 114,8840 42,0 0,-42 -42,0 0,42 z"
             style="fill:#ef4c64;fill-opacity:1;fill-rule:nonzero;stroke:none"
             id="path4518" />
        </g>
      </g>
    </g>
    <g
       transform="matrix(1.25,0,0,-1.25,122.67857,11884.684)"
       id="g4520">
      <g
         id="g4522"
         clip-path="url(#clipPath4524)">
        <g
           id="g4528"
           clip-path="url(#clipPath4530)">
          <path
             inkscape:connector-curvature="0"
             d="m 117.686,8834.88 24.1,0 0,-31.244 -24.1,0 0,31.244 z"
             style="fill:#37331f;fill-opacity:1;fill-rule:nonzero;stroke:none"
             id="path4534" />
        </g>
      </g>
    </g>
    <g
       transform="matrix(1.25,0,0,-1.25,122.67857,11884.684)"
       id="g4536">
      <g
         id="g4538"
         clip-path="url(#clipPath4540)">
        <g
           id="g4544"
           transform="matrix(1,0,0,-1,139,8825)">
          <path
             inkscape:connector-curvature="0"
             d="m 3,1.25 0,7.5"
             style="fill:none;stroke:#37331f;stroke-width:2;stroke-linecap:square;stroke-linejoin:miter;stroke-miterlimit:10;stroke-opacity:1;stroke-dasharray:none"
             id="path4546" />
        </g>
        <g
           id="g4548"
           transform="matrix(1,0,0,-1,137,8823)">
          <path
             inkscape:connector-curvature="0"
             d="M 8.75,3 1.25,3"
             style="fill:none;stroke:#37331f;stroke-width:2;stroke-linecap:square;stroke-linejoin:miter;stroke-miterlimit:10;stroke-opacity:1;stroke-dasharray:none"
             id="path4550" />
        </g>
      </g>
    </g>
  </g>
</svg>
