<?xml version="1.0" encoding="UTF-8" standalone="no"?>
<!-- Created with Inkscape (http://www.inkscape.org/) -->

<svg
   xmlns:dc="http://purl.org/dc/elements/1.1/"
   xmlns:cc="http://creativecommons.org/ns#"
   xmlns:rdf="http://www.w3.org/1999/02/22-rdf-syntax-ns#"
   xmlns:svg="http://www.w3.org/2000/svg"
   xmlns="http://www.w3.org/2000/svg"
   xmlns:sodipodi="http://sodipodi.sourceforge.net/DTD/sodipodi-0.dtd"
   xmlns:inkscape="http://www.inkscape.org/namespaces/inkscape"
   width="28.789845"
   height="20.008638"
   id="svg7868"
   version="1.1"
   inkscape:version="0.48.3.1 r9886"
   sodipodi:docname="Novo documento 50">
  <defs
     id="defs7870">
    <clipPath
       clipPathUnits="userSpaceOnUse"
       id="clipPath3270">
      <path
         inkscape:connector-curvature="0"
         d="m 1243.746,91.42061 c -0.362,3.04776 -1.582,3.46783 -4.009,3.63133 -3.451,0.23255 -11.156,0.23271 -14.61,0 -2.427,-0.16355 -3.647,-0.58363 -4.009,-3.63133 -0.269,-2.26271 -0.269,-6.12471 0,-8.39523 0.362,-3.04776 1.582,-3.46784 4.009,-3.63145 3.454,-0.23265 11.159,-0.23249 14.61,0 2.427,0.16361 3.647,0.58369 4.009,3.63145 0.269,2.26271 0.27,6.12466 0,8.39523 l 0,0 z m -13.607,-7.38261 0,6.36296 6.161,-3.18154 -6.161,-3.18142 0,0 z"
         clip-rule="evenodd"
         id="path3272" />
    </clipPath>
    <clipPath
       clipPathUnits="userSpaceOnUse"
       id="clipPath3276">
      <path
         inkscape:connector-curvature="0"
         d="m 0,0 1440,0 0,6076 L 0,6076 0,0 z"
         id="path3278" />
    </clipPath>
  </defs>
  <sodipodi:namedview
     id="base"
     pagecolor="#ffffff"
     bordercolor="#666666"
     borderopacity="1.0"
     inkscape:pageopacity="0.0"
     inkscape:pageshadow="2"
     inkscape:zoom="0.35"
     inkscape:cx="14.394887"
     inkscape:cy="10.004319"
     inkscape:document-units="px"
     inkscape:current-layer="layer1"
     showgrid="false"
     fit-margin-top="0"
     fit-margin-left="0"
     fit-margin-right="0"
     fit-margin-bottom="0"
     inkscape:window-width="486"
     inkscape:window-height="383"
     inkscape:window-x="0"
     inkscape:window-y="24"
     inkscape:window-maximized="0" />
  <metadata
     id="metadata7873">
    <rdf:RDF>
      <cc:Work
         rdf:about="">
        <dc:format>image/svg+xml</dc:format>
        <dc:type
           rdf:resource="http://purl.org/dc/dcmitype/StillImage" />
        <dc:title></dc:title>
      </cc:Work>
    </rdf:RDF>
  </metadata>
  <g
     inkscape:label="Camada 1"
     inkscape:groupmode="layer"
     id="layer1"
     transform="translate(-335.60511,-522.35786)">
    <g
       transform="matrix(1.25,0,0,-1.25,-1190.5402,641.39088)"
       id="g3266">
      <g
         id="g3268"
         clip-path="url(#clipPath3270)">
        <g
           id="g3274"
           clip-path="url(#clipPath3276)">
          <path
             inkscape:connector-curvature="0"
             d="m 1215.916,100.2264 33.032,0 0,-26.0069 -33.032,0 0,26.0069 z"
             style="fill:#fff;fill-opacity:1;fill-rule:nonzero;stroke:none"
             id="path3280" />
        </g>
      </g>
    </g>
  </g>
</svg>
