<svg xmlns="http://www.w3.org/2000/svg" width="45" height="45" viewBox="0 0 45 45">
    <g fill="none" fill-rule="evenodd">
        <circle cx="22.5" cy="22.5" r="22.5" fill="#009E00" fill-rule="nonzero"/>
        <path fill="#FFF" d="M28.481 24.945c-.307-.167-1.818-.976-2.102-1.09-.283-.115-.49-.174-.711.13-.22.302-.848.98-1.038 1.18-.19.201-.374.22-.682.052-.307-.166-1.304-.532-2.46-1.636-.9-.858-1.491-1.9-1.662-2.217-.172-.318-.002-.48.161-.629.146-.134.327-.352.49-.527.164-.176.221-.303.334-.507.112-.203.067-.387-.006-.545-.073-.158-.641-1.712-.879-2.343-.237-.632-.502-.538-.685-.546-.183-.006-.39-.04-.6-.048a1.156 1.156 0 0 0-.85.358c-.298.3-1.136 1.022-1.194 2.552-.058 1.53 1.009 3.05 1.158 3.262.149.213 2.036 3.529 5.174 4.892 3.138 1.363 3.154.948 3.73.917.576-.03 1.882-.683 2.17-1.399.29-.716.312-1.338.239-1.47-.074-.133-.28-.22-.587-.386zm-5.754 7.37c-2.075 0-4.008-.617-5.621-1.675l-3.926 1.247 1.276-3.765a10.031 10.031 0 0 1-1.946-5.944c0-5.59 4.583-10.138 10.217-10.138s10.217 4.548 10.217 10.138-4.583 10.138-10.217 10.138zm0-22.315c-6.778 0-12.273 5.452-12.273 12.178 0 2.3.644 4.453 1.761 6.288L10 35l6.795-2.158a12.3 12.3 0 0 0 5.932 1.514C29.506 34.356 35 28.904 35 22.178 35 15.452 29.506 10 22.727 10z"/>
    </g>
</svg>
