<?xml version="1.0" encoding="UTF-8"?>
<svg width="29px" height="29px" viewBox="0 0 29 29" version="1.1" xmlns="http://www.w3.org/2000/svg" xmlns:xlink="http://www.w3.org/1999/xlink">
    <!-- Generator: Sketch 48.1 (47250) - http://www.bohemiancoding.com/sketch -->
    <title>Page 1</title>
    <desc>Created with Sketch.</desc>
    <defs></defs>
    <g id="Study-in-the-States-VF---1" stroke="none" stroke-width="1" fill="none" fill-rule="evenodd" transform="translate(-717.000000, -5934.000000)">
        <path d="M731.287493,5934 C723.422507,5934 717,5940.42251 717,5948.28749 C717,5956.15248 723.422507,5962.57499 731.287493,5962.57499 C739.15248,5962.57499 745.574987,5956.15248 745.574987,5948.28749 C745.574987,5940.42251 739.15248,5934 731.287493,5934 Z M738.544987,5946.00749 L730.642507,5953.53251 C730.337493,5953.79749 729.957493,5953.95 729.577493,5953.95 C729.197493,5953.95 728.817493,5953.79749 728.51248,5953.49451 L724.03,5948.97251 C723.422507,5948.36451 723.422507,5947.41451 724.03,5946.80701 C724.637493,5946.19952 725.587493,5946.19952 726.194987,5946.80701 L729.65248,5950.26451 L736.454987,5943.80451 C737.06248,5943.23451 738.01248,5943.23451 738.62048,5943.84251 C739.15248,5944.48749 739.15248,5945.43749 738.544987,5946.00749 Z" id="Page-1" fill="#ffffff"></path>
    </g>
</svg>
