<?xml version="1.0" encoding="UTF-8" standalone="no"?>
<!-- Created with Inkscape (http://www.inkscape.org/) -->

<svg
   xmlns:dc="http://purl.org/dc/elements/1.1/"
   xmlns:cc="http://creativecommons.org/ns#"
   xmlns:rdf="http://www.w3.org/1999/02/22-rdf-syntax-ns#"
   xmlns:svg="http://www.w3.org/2000/svg"
   xmlns="http://www.w3.org/2000/svg"
   xmlns:sodipodi="http://sodipodi.sourceforge.net/DTD/sodipodi-0.dtd"
   xmlns:inkscape="http://www.inkscape.org/namespaces/inkscape"
   width="40"
   height="40"
   id="svg7593"
   version="1.1"
   inkscape:version="0.48.3.1 r9886"
   sodipodi:docname="ico-fb.svg">
  <defs
     id="defs7595">
    <clipPath
       clipPathUnits="userSpaceOnUse"
       id="clipPath4556">
      <path
         inkscape:connector-curvature="0"
         d="m 263,8832.998 c 0,1.106 0.8893,2.002 2.0017,2.002 l 27.9966,0 c 1.1055,0 2.0017,-0.889 2.0017,-2.002 l 0,-27.996 c 0,-1.106 -0.8893,-2.002 -2.0017,-2.002 l -27.9966,0 c -1.1055,0 -2.0017,0.889 -2.0017,2.002 l 0,27.996 z"
         clip-rule="evenodd"
         id="path4558" />
    </clipPath>
    <clipPath
       clipPathUnits="userSpaceOnUse"
       id="clipPath4562">
      <path
         inkscape:connector-curvature="0"
         d="M 0,0 414,0 414,9200 0,9200 0,0 z"
         id="path4564" />
    </clipPath>
    <clipPath
       clipPathUnits="userSpaceOnUse"
       id="clipPath4572">
      <path
         inkscape:connector-curvature="0"
         d="m 288.2896,8824.996 c 0.9743,0.593 1.7232,1.533 2.076,2.654 -0.9124,-0.55 -1.923,-0.949 -2.9978,-1.164 -0.8599,0.932 -2.0865,1.514 -3.4441,1.514 -2.6064,0 -4.7187,-2.147 -4.7187,-4.796 0,-0.376 0.0421,-0.743 0.1227,-1.093 -3.922,0.2 -7.3999,2.109 -9.7272,5.011 -0.4065,-0.708 -0.639,-1.533 -0.639,-2.411 0,-1.664 0.833,-3.132 2.0994,-3.993 -0.7734,0.025 -1.5012,0.241 -2.1368,0.6 -0.001,-0.019 -0.001,-0.039 -0.001,-0.059 0,-2.324 1.6275,-4.264 3.7853,-4.704 -0.3961,-0.109 -0.812,-0.169 -1.2431,-0.169 -0.3037,0 -0.5993,0.031 -0.8879,0.087 0.6005,-1.906 2.3436,-3.293 4.408,-3.331 -1.6146,-1.287 -3.6498,-2.053 -5.8601,-2.053 -0.3809,0 -0.7559,0.022 -1.1251,0.066 2.0877,-1.361 4.568,-2.155 7.2328,-2.155 8.6804,0 13.4271,7.309 13.4271,13.648 0,0.208 -0.005,0.414 -0.014,0.62 0.9218,0.677 1.7221,1.521 2.3541,2.483 -0.8458,-0.381 -1.7548,-0.639 -2.7104,-0.755 z"
         clip-rule="evenodd"
         id="path4574" />
    </clipPath>
    <clipPath
       clipPathUnits="userSpaceOnUse"
       id="clipPath4578">
      <path
         inkscape:connector-curvature="0"
         d="M 0,0 414,0 414,9200 0,9200 0,0 z"
         id="path4580" />
    </clipPath>
  </defs>
  <sodipodi:namedview
     id="base"
     pagecolor="#ffffff"
     bordercolor="#666666"
     borderopacity="1.0"
     inkscape:pageopacity="0.0"
     inkscape:pageshadow="2"
     inkscape:zoom="0.35"
     inkscape:cx="-31.42857"
     inkscape:cy="302.85663"
     inkscape:document-units="px"
     inkscape:current-layer="layer1"
     showgrid="false"
     inkscape:window-width="486"
     inkscape:window-height="383"
     inkscape:window-x="685"
     inkscape:window-y="24"
     inkscape:window-maximized="0"
     fit-margin-top="0"
     fit-margin-left="0"
     fit-margin-right="0"
     fit-margin-bottom="0" />
  <metadata
     id="metadata7598">
    <rdf:RDF>
      <cc:Work
         rdf:about="">
        <dc:format>image/svg+xml</dc:format>
        <dc:type
           rdf:resource="http://purl.org/dc/dcmitype/StillImage" />
        <dc:title></dc:title>
      </cc:Work>
    </rdf:RDF>
  </metadata>
  <g
     inkscape:label="Camada 1"
     inkscape:groupmode="layer"
     id="layer1"
     transform="translate(-51.42857,-1295.219)">
    <g
       transform="matrix(1.25,0,0,-1.25,-277.32143,12338.969)"
       id="g4552">
      <g
         id="g4554"
         clip-path="url(#clipPath4556)">
        <g
           id="g4560"
           clip-path="url(#clipPath4562)">
          <path
             inkscape:connector-curvature="0"
             d="m 258,8840 42,0 0,-42 -42,0 0,42 z"
             style="fill:#ef4c64;fill-opacity:1;fill-rule:nonzero;stroke:none"
             id="path4566" />
        </g>
      </g>
    </g>
    <g
       transform="matrix(1.25,0,0,-1.25,-277.32143,12338.969)"
       id="g4568">
      <g
         id="g4570"
         clip-path="url(#clipPath4572)">
        <g
           id="g4576"
           clip-path="url(#clipPath4578)">
          <path
             inkscape:connector-curvature="0"
             d="m 263,8833 33,0 0,-29 -33,0 0,29 z"
             style="fill:#37331f;fill-opacity:1;fill-rule:nonzero;stroke:none"
             id="path4582" />
        </g>
      </g>
    </g>
  </g>
</svg>
