<?xml version="1.0" encoding="UTF-8" standalone="no"?>
<svg width="92px" height="76px" viewBox="0 0 92 76" version="1.1" xmlns="http://www.w3.org/2000/svg" xmlns:xlink="http://www.w3.org/1999/xlink">
    <!-- Generator: Sketch 39.1 (31720) - http://www.bohemiancoding.com/sketch -->
    <title>Page 1</title>
    <desc>Created with Sketch.</desc>
    <defs></defs>
    <g id="Desktop" stroke="none" stroke-width="1" fill="none" fill-rule="evenodd">
        <g id="Educanada-World" transform="translate(-290.000000, -8941.000000)" fill="#FF0000">
            <g id="Group-6-Copy" transform="translate(0.000000, 8621.000000)">
                <g id="Find-what">
                    <g id="Testemonial-Copy-2" transform="translate(145.000000, 213.000000)">
                        <g id="Page-1" transform="translate(145.000000, 107.000000)">
                            <path d="M5.41246533,34.3233409 C5.41246533,10.3383409 27.5012576,5.30447727 46.0331376,5.30447727 C64.5650176,5.30447727 86.6558517,10.3383409 86.6558517,34.3233409 C86.6558517,58.3062955 64.5650176,63.3401591 46.0331376,63.3401591 C27.5012576,63.3401591 5.41246533,58.3062955 5.41246533,34.3233409 M80.5282435,70.04925 C74.0106409,68.9651591 71.9463251,65.2710682 71.5583726,64.4344773 C84.8406422,59.1244773 91.9503829,48.8951591 91.9503829,34.3233409 C91.9503829,12.1894773 75.6441253,0.000613636363 46.0331376,0.000613636363 C16.4241918,0.000613636363 0.115892298,12.1894773 0.115892298,34.3233409 C0.115892298,56.4551591 16.4241918,68.6440227 46.0331376,68.6440227 C53.5308308,68.6440227 60.1689029,67.8565227 65.9106004,66.3306136 C66.198502,67.1058409 69.0856856,74.1790227 79.5563203,75.92175 C79.7196688,75.9503864 79.8830172,75.9606136 80.0463657,75.9606136 C81.4715808,75.9606136 82.7314056,74.9297045 82.9723445,73.4733409 C83.2418694,71.8512955 82.1474349,70.31925 80.5282435,70.04925" id="Fill-1"></path>
                            <path d="M29.5812957,29.9022955 C26.9963067,29.9022955 24.901363,32.0009318 24.901363,34.5904773 C24.901363,37.1800227 26.9963067,39.2786591 29.5812957,39.2786591 C32.1662847,39.2786591 34.2612284,37.1800227 34.2612284,34.5904773 C34.2612284,32.0009318 32.1662847,29.9022955 29.5812957,29.9022955" id="Fill-4"></path>
                            <path d="M46.2922491,29.9022955 C43.7072601,29.9022955 41.6123164,32.0009318 41.6123164,34.5904773 C41.6123164,37.1800227 43.7072601,39.2786591 46.2922491,39.2786591 C48.8772381,39.2786591 50.9721817,37.1800227 50.9721817,34.5904773 C50.9721817,32.0009318 48.8772381,29.9022955 46.2922491,29.9022955" id="Fill-6"></path>
                            <path d="M62.5429682,29.9022955 C59.9579792,29.9022955 57.8630355,32.0009318 57.8630355,34.5904773 C57.8630355,37.1800227 59.9579792,39.2786591 62.5429682,39.2786591 C65.1279572,39.2786591 67.2229009,37.1800227 67.2229009,34.5904773 C67.2229009,32.0009318 65.1279572,29.9022955 62.5429682,29.9022955" id="Fill-8"></path>
                        </g>
                    </g>
                </g>
            </g>
        </g>
    </g>
</svg>