<?xml version="1.0" encoding="UTF-8" standalone="no"?>
<svg width="66px" height="68px" viewBox="0 0 66 68" version="1.1" xmlns="http://www.w3.org/2000/svg" xmlns:xlink="http://www.w3.org/1999/xlink">
    <!-- Generator: sketchtool 3.8.3 (29802) - http://www.bohemiancoding.com/sketch -->
    <title>Group</title>
    <desc>Created with sketchtool.</desc>
    <defs></defs>
    <g id="Page-1" stroke="none" stroke-width="1" fill="none" fill-rule="evenodd">
        <g id="Educanada-World" transform="translate(-195.000000, -3323.000000)" fill="#FFFFFF">
            <g id="Group-6" transform="translate(0.000000, 3096.000000)">
                <g id="Find-what">
                    <g id="Image-Center" transform="translate(0.000000, 0.000000)">
                        <g id="noun_106794_cc" transform="translate(195.000000, 227.000000)">
                            <g id="Group">
                                <path d="M33.02475,4.2997561 L55.34595,18.3201951 L10.704375,18.3201951 L33.02475,4.2997561 L33.02475,4.2997561 Z M33.02475,0.779512195 L0.3465,21.305561 L65.703825,21.305561 L33.02475,0.779512195 L33.02475,0.779512195 L33.02475,0.779512195 Z" id="Shape"></path>
                                <rect id="Rectangle-path" x="8.13615" y="28.2059024" width="5.94" height="29.3071707"></rect>
                                <rect id="Rectangle-path" x="19.096275" y="28.2059024" width="5.94" height="29.3071707"></rect>
                                <rect id="Rectangle-path" x="30.055575" y="28.2059024" width="5.94" height="29.3071707"></rect>
                                <rect id="Rectangle-path" x="41.014875" y="28.2059024" width="5.94" height="29.3071707"></rect>
                                <rect id="Rectangle-path" x="51.97335" y="28.2059024" width="5.94" height="29.3071707"></rect>
                                <rect id="Rectangle-path" x="5.237925" y="23.2676098" width="55.5753" height="2.98536585"></rect>
                                <rect id="Rectangle-path" x="5.237925" y="59.466" width="55.5753" height="2.98536585"></rect>
                                <rect id="Rectangle-path" x="1.555125" y="64.3794146" width="62.940075" height="2.98536585"></rect>
                                <ellipse id="Oval" cx="33.025575" cy="11.0425366" rx="3.55575" ry="3.57414634"></ellipse>
                            </g>
                        </g>
                    </g>
                </g>
            </g>
        </g>
    </g>
</svg>