<?xml version="1.0" encoding="UTF-8" standalone="no"?>
<svg width="67px" height="54px" viewBox="0 0 67 54" version="1.1" xmlns="http://www.w3.org/2000/svg" xmlns:xlink="http://www.w3.org/1999/xlink">
    <!-- Generator: Sketch 3.8.3 (29802) - http://www.bohemiancoding.com/sketch -->
    <title>noun_137857_cc</title>
    <desc>Created with Sketch.</desc>
    <defs></defs>
    <g id="Desktop" stroke="none" stroke-width="1" fill="none" fill-rule="evenodd">
        <g id="Educanada-World" transform="translate(-195.000000, -3466.000000)" fill="#FFFFFF">
            <g id="Group-6" transform="translate(0.000000, 3096.000000)">
                <g id="Find-what">
                    <g id="Image-Center" transform="translate(0.000000, 0.000000)">
                        <g id="noun_137857_cc" transform="translate(195.000000, 370.000000)">
                            <g id="Group">
                                <path d="M66.4910693,23.7193839 C66.3986781,23.3593727 66.1074611,23.0831192 65.7423311,23.0067087 L65.2951578,22.9141344 L65.2951578,16.697696 L66.0246786,16.077595 C66.3129391,15.8336691 66.4334172,15.4457386 66.3343738,15.0827886 C66.2353305,14.7198385 65.9345048,14.4457891 65.5619835,14.3789299 L61.4635107,13.6398049 L61.4649889,8.40568276 L61.4635107,8.2976794 L62.2181618,7.6570064 C62.5056832,7.41234572 62.6269004,7.02441528 62.5278571,6.66219992 C62.4288137,6.29851513 62.1279881,6.02446578 61.7554668,5.95760656 L28.6299017,0.0159522174 C28.3726847,-0.0310696544 28.1088155,0.0269729687 27.8952071,0.175385752 L2.22745825,17.9694907 C1.74258933,18.2369276 -0.032799641,19.4484755 0.000461184804,22.8156823 C0.0381567873,26.4723676 2.21489305,28.1328275 2.30802336,28.2018908 C2.32058856,28.2114421 2.33463202,28.2173199 2.34793635,28.2261365 C2.37011024,28.2415655 2.39228412,28.2555251 2.41519713,28.26875 C2.43958841,28.2827097 2.46471881,28.2944651 2.49058834,28.3062206 C2.51350135,28.3172414 2.53641437,28.3267927 2.56154477,28.3356093 C2.58963169,28.3458953 2.61771861,28.3532425 2.64654466,28.3605896 C2.6628055,28.3657327 2.67832722,28.3723451 2.69458807,28.3760187 L4.2105426,28.6919469 C3.96441249,29.3568656 3.79736923,30.1900343 3.80845617,31.2370057 C3.82693441,33.0488172 4.37019456,34.3698379 4.92528079,35.2507633 L3.75080407,36.0640947 C3.26297863,36.3344705 1.49054618,37.5482226 1.52528526,40.9102864 C1.56224174,44.5669717 3.73823887,46.2311051 3.83358657,46.2964949 C3.91562994,46.3523334 4.07971668,46.4382952 4.21867302,46.469888 L38.9681055,53.7178688 C38.9718012,53.7186035 38.9754968,53.7200729 38.9791925,53.7208076 L40.2201908,53.9794279 C40.2867125,53.9933875 40.3547124,54 40.421234,54 C40.6518424,54 40.878016,53.9184464 41.0568854,53.7670948 L63.8952466,34.3749809 C64.1798114,34.1332591 64.3010287,33.7519411 64.2086375,33.3926646 C64.1155072,33.0326534 63.8250293,32.7563999 63.4591602,32.6799894 L63.0511608,32.595497 L63.0511608,27.3562318 L66.1769392,24.702435 C66.4622432,24.4599784 66.5841996,24.0786604 66.4910693,23.7193839 L66.4910693,23.7193839 Z M38.742671,27.2834949 C38.9740185,27.2834949 39.2001922,27.2019413 39.3790615,27.049855 L59.5159045,9.95226152 L59.5159045,16.1429848 L38.5615843,33.8584751 L38.5615843,27.2643923 C38.6229321,27.275413 38.6828015,27.2834949 38.742671,27.2834949 L38.742671,27.2834949 Z M3.74415191,20.0046561 L36.5984565,26.8573592 L36.5984565,33.4477684 L3.74415191,26.6090249 L3.74415191,20.0046561 L3.74415191,20.0046561 Z M5.26897598,44.6962818 L5.26897598,38.097056 L38.1225414,44.9512285 L38.1225414,51.5504544 L5.26897598,44.6962818 L5.26897598,44.6962818 Z M7.56766861,35.031083 L7.56766861,29.392132 L37.4440206,35.6232647 C37.4477162,35.6239994 37.4506727,35.6254688 37.4543684,35.6262036 L38.6953667,35.8848239 C38.7626275,35.8987835 38.8298883,35.9053959 38.89641,35.9053959 C39.1270183,35.9053959 39.3539311,35.8238424 39.5328004,35.6724907 L40.0760606,35.2103539 L40.4042341,35.2786825 L40.4042341,41.8757042 L7.56766861,35.031083 L7.56766861,35.031083 Z M61.0909894,34.1927712 L40.0930606,51.9618957 L40.0864084,45.3589963 C40.1462779,45.3707518 40.2068865,45.3773642 40.2674951,45.3773642 C40.4981035,45.3773642 40.7242771,45.2965454 40.9031464,45.144459 L42.0111015,44.2040216 L42.5011443,44.3061472 C42.567666,44.3201068 42.6356659,44.3267193 42.7014484,44.3267193 C42.9327959,44.3267193 43.1589696,44.2451657 43.3378389,44.0938141 L61.0909894,29.0130181 L61.0909894,34.1927712 L61.0909894,34.1927712 Z M63.3704647,24.5231641 L42.3754923,42.2864109 L42.368101,35.6864503 C42.4287097,35.6974711 42.4885791,35.7048183 42.5484486,35.7048183 C42.7797961,35.7048183 43.0059698,35.6232647 43.1848391,35.471913 L63.3734212,18.3295019 L63.3704647,24.5231641 L63.3704647,24.5231641 Z" id="Shape"></path>
                            </g>
                        </g>
                    </g>
                </g>
            </g>
        </g>
    </g>
</svg>