<?xml version="1.0" encoding="UTF-8" standalone="no"?>
<svg width="53px" height="44px" viewBox="0 0 53 44" version="1.1" xmlns="http://www.w3.org/2000/svg" xmlns:xlink="http://www.w3.org/1999/xlink">
    <!-- Generator: Sketch 39.1 (31720) - http://www.bohemiancoding.com/sketch -->
    <title>Page 1</title>
    <desc>Created with Sketch.</desc>
    <defs></defs>
    <g id="Desktop" stroke="none" stroke-width="1" fill="none" fill-rule="evenodd">
        <g id="Educanada-World" transform="translate(-200.000000, -1906.000000)" fill="#FFFFFF">
            <g id="20-razões-copy-2" transform="translate(0.000000, 1347.000000)">
                <g id="Item1" transform="translate(176.000000, 528.000000)">
                    <g id="Page-1" transform="translate(24.000000, 31.000000)">
                        <path d="M3.05480222,19.8714079 C3.05480222,5.98535526 15.7960022,3.07101316 26.4855133,3.07101316 C37.1750244,3.07101316 49.9174022,5.98535526 49.9174022,19.8714079 C49.9174022,33.7562763 37.1750244,36.6706184 26.4855133,36.6706184 C15.7960022,36.6706184 3.05480222,33.7562763 3.05480222,19.8714079 M46.3828911,40.5548289 C42.6234244,39.9271974 41.4326911,37.7885132 41.2089133,37.3041711 C48.8703578,34.2299605 52.97138,28.3077237 52.97138,19.8714079 C52.97138,7.05706579 43.5656467,0.000355263158 26.4855133,0.000355263158 C9.40655778,0.000355263158 -0.000353333333,7.05706579 -0.000353333333,19.8714079 C-0.000353333333,32.6845658 9.40655778,39.7412763 26.4855133,39.7412763 C30.8103133,39.7412763 34.6392689,39.2853553 37.95118,38.4019342 C38.1172467,38.85075 39.7826244,42.94575 45.8222689,43.9546974 C45.9164911,43.9712763 46.0107133,43.9771974 46.1049356,43.9771974 C46.9270244,43.9771974 47.6537133,43.3803553 47.7926911,42.5371974 C47.9481578,41.5981184 47.3168689,40.7111447 46.3828911,40.5548289" id="Fill-1"></path>
                        <path d="M16.9958044,17.3118553 C15.5047378,17.3118553 14.2963378,18.5268553 14.2963378,20.0260658 C14.2963378,21.5252763 15.5047378,22.7402763 16.9958044,22.7402763 C18.4868711,22.7402763 19.6952711,21.5252763 19.6952711,20.0260658 C19.6952711,18.5268553 18.4868711,17.3118553 16.9958044,17.3118553" id="Fill-4"></path>
                        <path d="M26.6349733,17.3118553 C25.1439067,17.3118553 23.9355067,18.5268553 23.9355067,20.0260658 C23.9355067,21.5252763 25.1439067,22.7402763 26.6349733,22.7402763 C28.12604,22.7402763 29.33444,21.5252763 29.33444,20.0260658 C29.33444,18.5268553 28.12604,17.3118553 26.6349733,17.3118553" id="Fill-6"></path>
                        <path d="M36.0086711,17.3118553 C34.5176044,17.3118553 33.3092044,18.5268553 33.3092044,20.0260658 C33.3092044,21.5252763 34.5176044,22.7402763 36.0086711,22.7402763 C37.4997378,22.7402763 38.7081378,21.5252763 38.7081378,20.0260658 C38.7081378,18.5268553 37.4997378,17.3118553 36.0086711,17.3118553" id="Fill-8"></path>
                    </g>
                </g>
            </g>
        </g>
    </g>
</svg>