<?xml version="1.0" encoding="UTF-8" standalone="no"?>
<svg width="62px" height="49px" viewBox="0 0 62 49" version="1.1" xmlns="http://www.w3.org/2000/svg" xmlns:xlink="http://www.w3.org/1999/xlink">
    <!-- Generator: Sketch 39.1 (31720) - http://www.bohemiancoding.com/sketch -->
    <title>Page 1</title>
    <desc>Created with Sketch.</desc>
    <defs></defs>
    <g id="Desktop" stroke="none" stroke-width="1" fill="none" fill-rule="evenodd">
        <g id="Educanada-World" transform="translate(-778.000000, -2054.000000)" fill="#FFFFFF">
            <g id="20-razões-copy-2" transform="translate(0.000000, 1347.000000)">
                <g id="Item4" transform="translate(758.000000, 678.000000)">
                    <g id="Page-1" transform="translate(20.000000, 29.000000)">
                        <path d="M53.1828386,19.5311957 L51.2423474,25.3475 L39.5635053,13.6768478 C39.3013649,13.4159783 38.9456807,13.2681522 38.5758561,13.2681522 L27.9531895,13.2681522 C27.5822772,13.2681522 27.226593,13.4159783 26.9644526,13.6768478 L24.3093298,16.3311957 C22.2785579,18.3594565 20.6328386,19.2148913 19.2753649,18.946413 C18.3790842,18.7692391 17.5295754,18.1192391 16.6659263,17.3127174 C17.891786,16.0942391 20.228207,13.771413 23.6425579,10.3594565 C28.3621719,5.64423913 40.8328737,8.04858696 40.9579614,8.07358696 C41.4158912,8.1648913 41.8890491,8.02141304 42.2186281,7.69206522 L46.5412246,3.3725 L57.8426281,14.6648913 L53.5200316,18.9844565 C53.3666632,19.1377174 53.2513649,19.3246739 53.1828386,19.5311957 L53.1828386,19.5311957 Z M53.5124175,31.5659783 C53.5167684,31.5703261 53.9921018,32.0692391 54.1998561,32.7540217 C54.3466982,33.2398913 54.4358912,33.9909783 53.5200316,34.9061957 C52.6052596,35.8225 51.8514702,35.7322826 51.3663474,35.5855435 C50.7104526,35.3877174 50.2318561,34.9496739 50.1861719,34.9061957 L50.1861719,34.9061957 L42.2208035,26.9475 C41.6747684,26.4018478 40.7893649,26.4018478 40.2444175,26.9475 C39.6983825,27.4931522 39.6983825,28.3768478 40.2444175,28.9225 L48.2054351,36.8790217 C48.2239263,36.8975 48.6851193,37.3855435 48.8885228,38.0605435 C49.0364526,38.546413 49.1256456,39.298587 48.209786,40.2138043 C47.2928386,41.1290217 46.5412246,41.0388043 46.055014,40.8920652 C45.3773649,40.6877174 44.8846281,40.2225 44.877014,40.2159783 C44.8759263,40.2148913 44.8759263,40.2138043 44.8748386,40.2138043 L36.9072947,32.2529348 C36.3623474,31.7083696 35.4780316,31.7083696 34.9309088,32.2529348 C34.3859614,32.7996739 34.3859614,33.6833696 34.9309088,34.2279348 L40.2357158,39.5290217 L40.2357158,39.5290217 C40.2411544,39.5344565 40.7175754,40.0322826 40.9242421,40.7170652 C41.0710842,41.2029348 41.1602772,41.9551087 40.2444175,42.8703261 C39.3285579,43.7844565 38.5758561,43.6942391 38.0885579,43.5475 C37.4098211,43.3420652 36.9181719,42.8768478 36.9105579,42.8703261 C36.9094702,42.8692391 36.9094702,42.8681522 36.9083825,42.8670652 L31.5981368,37.5627174 C31.0531895,37.0159783 30.167786,37.0159783 29.6217509,37.5627174 C29.0768035,38.1072826 29.0768035,38.9920652 29.6217509,39.5377174 L32.2496807,42.1627174 C32.291014,42.2116304 32.6836807,42.6844565 32.8849088,43.323587 C33.1459614,44.1496739 32.9523474,44.8496739 32.2790491,45.5225 C31.6209789,46.1790217 30.9433298,46.3779348 30.1438561,46.148587 C29.4923123,45.9616304 28.9941368,45.5594565 28.9103825,45.4898913 L27.1395754,43.7203261 C28.0869789,42.0801087 28.4002421,39.671413 26.2857158,37.5594565 C25.6048035,36.8801087 24.8945228,36.4540217 24.188593,36.2170652 C25.3459263,34.5931522 25.9506982,31.9181522 23.6316807,29.598587 C22.5907333,28.5594565 21.363786,28.0094565 20.0857158,28.0094565 C20.0182772,28.0094565 19.9584526,28.0225 19.8931895,28.0257609 C19.9421368,26.8170652 19.5342421,25.5061957 18.3192596,24.2920652 C15.6456456,21.6203261 12.4956105,22.8290217 11.0315404,24.2920652 L9.97536491,25.3475 L8.03487368,19.5301087 C7.96634737,19.3246739 7.8499614,19.1377174 7.69659298,18.9844565 L3.37508421,14.6648913 L14.6884526,3.37141304 L19.0110491,7.69097826 C19.3417158,8.02141304 19.8159614,8.1648913 20.2738912,8.0725 C20.2945579,8.06923913 21.1168737,7.90945652 22.4025579,7.74967391 C22.150207,7.95402174 21.8956807,8.1551087 21.6661719,8.38445652 C16.4179263,13.6301087 13.7192947,16.2996739 13.6921018,16.3257609 C13.427786,16.5866304 13.2787684,16.9431522 13.2776807,17.3148913 C13.276593,17.6866304 13.4245228,18.0442391 13.6877509,18.3061957 C15.1485579,19.7670652 16.6604877,21.2779348 18.732593,21.6877174 C21.0755404,22.1507609 23.5457509,21.0442391 26.2857158,18.3061957 L28.5318561,16.0616304 L37.9961018,16.0616304 L50.8431544,28.8996739 L50.8877509,28.9431522 L53.5124175,31.5659783 Z M20.9754702,42.8681522 C20.0585228,41.9529348 20.1477158,41.2007609 20.2956456,40.7148913 C20.5001368,40.0366304 20.9700316,39.5409783 20.9743825,39.5366304 C20.9983123,39.5138043 21.4845228,39.0594565 22.1545579,38.8561957 C22.6418561,38.7094565 23.3934702,38.6203261 24.3093298,39.5355435 C25.2251895,40.4496739 25.1359965,41.2018478 24.9891544,41.6877174 C24.7835754,42.3681522 24.3136807,42.8616304 24.3104175,42.8659783 C24.2854,42.8898913 23.7981018,43.3442391 23.1302421,43.546413 C22.6429439,43.6931522 21.8913298,43.7833696 20.9754702,42.8681522 L20.9754702,42.8681522 Z M14.578593,40.9844565 C14.0412596,40.9844565 13.5278561,40.7311957 13.009014,40.2127174 C12.0931544,39.298587 12.1823474,38.546413 12.3291895,38.0605435 C12.5336807,37.3855435 12.9970491,36.8942391 13.0057509,36.8855435 C13.0068386,36.8844565 13.0068386,36.8833696 13.0079263,36.8833696 C13.009014,36.8822826 13.009014,36.8811957 13.009014,36.8811957 L18.3192596,31.5746739 C18.3268737,31.5670652 19.1491895,30.8040217 20.0857158,30.8040217 C20.6230491,30.8040217 21.1364526,31.0561957 21.654207,31.5746739 C22.5700667,32.4898913 22.479786,33.2409783 22.3340316,33.7268478 C22.1273649,34.4094565 21.6552947,34.9061957 21.6552947,34.9061957 L19.0001719,37.5583696 C18.9990842,37.5583696 18.9990842,37.5594565 18.9990842,37.5594565 C18.9990842,37.5594565 18.9979965,37.5594565 18.9979965,37.5605435 C18.9969088,37.5616304 18.9914702,37.5670652 18.9892947,37.5692391 L16.341786,40.2127174 C16.3352596,40.221413 15.5140316,40.9844565 14.578593,40.9844565 L14.578593,40.9844565 Z M7.69659298,34.9072826 C6.78073333,33.9909783 6.86992632,33.2398913 7.01785614,32.7529348 C7.22452281,32.071413 7.6976807,31.573587 7.6976807,31.573587 L13.0003123,26.2768478 C13.0046632,26.2692391 13.5028386,25.7953261 14.1881018,25.5888043 C14.6743123,25.4409783 15.427014,25.3507609 16.3428737,26.2681522 C17.2587333,27.1822826 17.1684526,27.9333696 17.0216105,28.4192391 C16.818207,29.0942391 16.357014,29.5844565 16.3461368,29.5953261 C16.3461368,29.596413 16.3428737,29.598587 16.341786,29.598587 L11.0413298,34.8975 C11.0413298,34.8975 11.0402421,34.8975 11.0402421,34.898587 C11.0358912,34.9018478 10.5366281,35.3779348 9.85245263,35.5844565 C9.36515439,35.7311957 8.61354035,35.821413 7.69659298,34.9072826 L7.69659298,34.9072826 Z M60.8077509,15.6529348 C61.353786,15.1072826 61.353786,14.2225 60.8077509,13.6779348 L47.5299614,0.409456522 C47.2678211,0.1475 46.9132246,0.000760869565 46.5412246,0.000760869565 C46.1714,0.000760869565 45.8157158,0.1475 45.5535754,0.409456522 L40.7578211,5.20076087 C39.0936105,4.92902174 34.9537509,4.38119565 30.7334,4.81271739 C30.7279614,4.81271739 30.7246982,4.80945652 30.7192596,4.80836957 C26.4249439,4.35402174 22.1589088,4.92467391 20.4729439,5.20184783 L15.6771895,0.409456522 C15.1311544,-0.136195652 14.2468386,-0.137282609 13.7008035,0.408369565 L0.409961404,13.6768478 C0.147821053,13.9388043 -0.00010877193,14.2942391 -0.00010877193,14.6648913 C-0.00010877193,15.0344565 0.147821053,15.3909783 0.409961404,15.6529348 L5.48743509,20.7268478 L7.7651193,27.5561957 L5.72020702,29.5996739 C4.25613684,31.0616304 3.04659298,34.2105435 5.72020702,36.8833696 C6.87318947,38.0333696 8.11427719,38.4638043 9.27052281,38.4638043 C9.33034737,38.4638043 9.38799649,38.4561957 9.44782105,38.4540217 C9.39125965,39.796413 9.93185614,41.0888043 11.0326281,42.1877174 C12.0724877,43.2279348 13.2983474,43.7779348 14.578593,43.7779348 C15.9175754,43.7779348 17.0031193,43.1953261 17.6579263,42.7322826 C17.9102772,43.4822826 18.3518912,44.196413 18.9979965,44.8431522 C20.1509789,45.9953261 21.3920667,46.4257609 22.5483123,46.4257609 C23.5120316,46.4257609 24.4159263,46.1257609 25.1621018,45.6953261 L26.9655404,47.4953261 L27.0101368,47.5388043 C27.8639965,48.321413 29.2519263,49.0225 30.7584175,49.0225 C31.9157509,49.0225 33.1448737,48.6083696 34.2554351,47.4975 C34.9330842,46.8203261 35.3453298,46.0996739 35.5694,45.3779348 C36.3906281,45.971413 37.4848737,46.4268478 38.6715754,46.4268478 C39.8278211,46.4268478 41.0689088,45.996413 42.2208035,44.8453261 C42.9017158,44.1648913 43.3281018,43.4529348 43.5652246,42.746413 C44.3831895,43.3290217 45.4643825,43.771413 46.6358561,43.771413 C47.7921018,43.771413 49.0331895,43.3409783 50.1861719,42.1898913 C51.4022421,40.9746739 51.8101368,39.6616304 51.7601018,38.4529348 C51.8231895,38.4551087 51.883014,38.4638043 51.9461018,38.4638043 C53.1034351,38.4638043 54.3434351,38.0333696 55.4964175,36.8822826 C56.9604877,35.4192391 57.4347333,33.6159783 56.8310491,31.8040217 C56.4057509,30.5333696 55.587786,29.6920652 55.4964175,29.5996739 L53.452593,27.5561957 L55.7302772,20.7268478 L60.8077509,15.6529348 Z" id="Fill-1"></path>
                    </g>
                </g>
            </g>
        </g>
    </g>
</svg>