<?xml version="1.0" encoding="UTF-8" standalone="no"?>
<svg width="56px" height="56px" viewBox="0 0 56 56" version="1.1" xmlns="http://www.w3.org/2000/svg" xmlns:xlink="http://www.w3.org/1999/xlink">
    <!-- Generator: Sketch 39.1 (31720) - http://www.bohemiancoding.com/sketch -->
    <title>Page 1</title>
    <desc>Created with Sketch.</desc>
    <defs></defs>
    <g id="Desktop" stroke="none" stroke-width="1" fill="none" fill-rule="evenodd">
        <g id="Educanada-World" transform="translate(-198.000000, -2350.000000)" fill="#FFFFFF">
            <g id="20-razões-copy-2" transform="translate(0.000000, 1347.000000)">
                <g id="Item-7" transform="translate(176.000000, 975.000000)">
                    <g id="Page-1" transform="translate(22.000000, 28.000000)">
                        <path d="M37.723392,50.682688 C40.871712,47.229728 43.275232,42.283808 44.490432,36.520288 C47.648832,35.695968 50.165472,34.642048 52.019072,33.450368 C50.272992,41.204128 44.871232,47.585888 37.723392,50.682688 M3.870272,33.450368 C5.380032,34.421408 7.343392,35.296128 9.722272,36.036448 C10.753792,41.255648 12.756352,45.831968 15.405152,49.272608 C9.642752,45.858848 5.384512,40.170368 3.870272,33.450368 M15.192352,6.898528 C12.620832,10.343648 10.684352,14.872928 9.690912,20.021568 C7.325472,20.759648 5.374432,21.631008 3.870272,22.597568 C5.365472,15.960448 9.536352,10.325728 15.192352,6.898528 M52.019072,22.597568 C50.173312,21.411488 47.668992,20.359808 44.527392,19.536608 C43.355872,13.853728 41.030752,8.952608 37.975392,5.479488 C44.997792,8.615488 50.293152,14.935648 52.019072,22.597568 M45.099712,23.162048 C49.895552,24.604608 52.627232,26.495168 52.627232,28.023968 C52.627232,29.555008 49.888832,31.448928 45.079552,32.892608 C45.267712,31.284288 45.371872,29.632288 45.371872,27.943328 C45.371872,26.312608 45.274432,24.716608 45.099712,23.162048 M34.011712,34.841408 C34.199872,31.450048 34.217792,28.768768 34.217792,27.943328 C34.217792,27.130208 34.200992,24.522848 34.020672,21.207648 C36.871072,21.437248 39.444832,21.816928 41.710592,22.300768 C41.969312,24.114048 42.110432,26.001248 42.110432,27.943328 C42.110432,29.944768 41.961472,31.887968 41.688192,33.752768 C39.424672,34.234368 36.855392,34.612928 34.011712,34.841408 M31.247552,51.678368 C32.649792,48.111168 33.393472,42.846048 33.783232,38.149888 C36.420832,37.971808 38.820992,37.673888 40.996032,37.279648 C39.268992,44.229248 35.673792,49.596288 31.247552,51.678368 M20.517952,38.023328 C20.905472,42.750848 21.649152,48.079808 23.064832,51.679488 C18.571392,49.566048 14.936992,44.067968 13.240192,36.964928 C15.401792,37.430848 17.842272,37.785888 20.517952,38.023328 M23.064832,4.208288 C21.632352,7.849408 20.888672,13.257888 20.505632,18.026848 C17.816512,18.265408 15.368192,18.623808 13.199872,19.094208 C14.877632,11.908288 18.535552,6.338528 23.064832,4.208288 M41.036352,18.776128 C38.854592,18.378528 36.445472,18.078368 33.796672,17.899168 C33.410272,13.162688 32.666592,7.816928 31.247552,4.208288 C35.709632,6.308288 39.324992,11.744768 41.036352,18.776128 M27.944672,17.699808 C26.496512,17.699808 25.122272,17.743488 23.783872,17.805088 C24.526432,9.430848 26.080992,4.366208 27.148352,3.361568 L27.164032,3.361568 C28.229152,4.363968 29.778112,9.407328 30.522912,17.745728 C29.677312,17.722208 28.830592,17.699808 27.944672,17.699808 M23.799552,38.243968 C25.133472,38.305568 26.502112,38.348128 27.944672,38.348128 C28.824992,38.348128 29.667232,38.325728 30.507232,38.302208 C29.754592,46.561088 28.214592,51.555168 27.156192,52.535168 C26.095552,51.552928 24.549952,46.539808 23.799552,38.243968 M30.956352,27.943328 C30.956352,30.489088 30.879072,32.850048 30.751392,35.036288 C29.838592,35.068768 28.903392,35.086688 27.944672,35.086688 C26.419232,35.086688 24.965472,35.032928 23.556512,34.953408 C23.431072,32.789568 23.356032,30.457728 23.356032,27.943328 C23.356032,25.490528 23.427712,23.213568 23.547552,21.095648 C24.959872,21.015008 26.415872,20.961248 27.944672,20.961248 C28.905632,20.961248 29.844192,20.979168 30.759232,21.012768 C30.882432,23.154208 30.956352,25.459168 30.956352,27.943328 M9.168992,32.355008 C5.387872,30.999808 3.262112,29.371328 3.262112,28.023968 C3.262112,26.678848 5.381152,25.053728 9.149952,23.699648 C9.012192,25.083968 8.940512,26.500768 8.940512,27.943328 C8.940512,29.444128 9.020032,30.916928 9.168992,32.355008 M12.201952,27.943328 C12.201952,26.136768 12.322912,24.376128 12.548032,22.679328 C14.784672,22.117088 17.368512,21.650048 20.283872,21.347648 C20.110272,24.596768 20.094592,27.142528 20.094592,27.943328 C20.094592,28.757568 20.111392,31.375008 20.292832,34.701408 C17.384192,34.400128 14.804832,33.935328 12.571552,33.375328 C12.331872,31.625888 12.201952,29.809248 12.201952,27.943328 M28.605472,0.096768 C28.127232,0.038528 27.645632,0.000448 27.157312,0.000448 C27.157312,0.000448 27.157312,0.000448 27.156192,0.000448 L27.156192,0.000448 L27.156192,0.000448 C26.255712,0.000448 25.370912,0.104608 24.505152,0.299488 C10.713472,2.000768 -0.000448,13.780928 -0.000448,28.023968 C-0.000448,43.432928 12.535712,55.967968 27.945792,55.967968 C43.353632,55.967968 55.889792,43.432928 55.889792,28.023968 C55.889792,12.836768 43.709792,0.449568 28.605472,0.096768" id="Fill-1"></path>
                    </g>
                </g>
            </g>
        </g>
    </g>
</svg>