<?xml version="1.0" encoding="UTF-8" standalone="no"?>
<svg width="65px" height="34px" viewBox="0 0 65 34" version="1.1" xmlns="http://www.w3.org/2000/svg" xmlns:xlink="http://www.w3.org/1999/xlink">
    <!-- Generator: Sketch 39.1 (31720) - http://www.bohemiancoding.com/sketch -->
    <title>Page 1</title>
    <desc>Created with Sketch.</desc>
    <defs></defs>
    <g id="Desktop" stroke="none" stroke-width="1" fill="none" fill-rule="evenodd">
        <g id="Educanada-World" transform="translate(-194.000000, -2061.000000)" fill="#FFFFFF">
            <g id="20-razões-copy-2" transform="translate(0.000000, 1347.000000)">
                <g id="Item3" transform="translate(176.000000, 678.000000)">
                    <g id="Page-1" transform="translate(18.000000, 36.000000)">
                        <path d="M62.7763607,30.3922812 L1.62627869,30.3922812 C0.770622951,30.3922812 0.0748032787,31.0850312 0.0748032787,31.9392812 C0.0748032787,32.7935313 0.770622951,33.4862812 1.62627869,33.4862812 L62.7763607,33.4862812 C63.633082,33.4862812 64.3278361,32.7935313 64.3278361,31.9392812 C64.3278361,31.0850312 63.633082,30.3922812 62.7763607,30.3922812" id="Fill-1"></path>
                        <path d="M47.2974098,17.1608625 C44.8380656,16.2758 42.2966721,15.36205 39.7947049,15.36205 C36.336918,15.36205 33.6399508,17.476425 32.2014262,18.917175 C30.7639672,17.476425 28.0659344,15.36205 24.6081475,15.36205 C22.1061803,15.36205 19.5647869,16.2758 17.1054426,17.1608625 C14.8986393,17.95455 12.8133115,18.704675 11.0359344,18.704675 C8.54142623,18.704675 5.48962295,17.663425 3.70904918,16.9589875 L11.1872459,3.765925 C12.4073279,4.284425 15.262,5.3713625 17.7117541,5.3713625 C19.3804426,5.3713625 21.0853607,4.7583 22.7348689,4.165425 C24.2000328,3.638425 25.7142131,3.094425 26.962,3.094425 C29.1155246,3.094425 30.7980656,5.317175 30.8108525,5.334175 C31.114541,5.7496125 31.5865902,5.96955 32.0650328,5.96955 C32.0938033,5.96955 32.1215082,5.9578625 32.1502787,5.9557375 C32.1705246,5.9568 32.1886393,5.9653 32.2088852,5.9653 C32.6841311,5.9653 33.1540492,5.74855 33.4598689,5.3394875 C33.4758525,5.317175 35.1583934,3.094425 37.311918,3.094425 C38.5597049,3.094425 40.0738852,3.638425 41.5379836,4.165425 C43.1874918,4.7583 44.8934754,5.3713625 46.5621639,5.3713625 C49.7077377,5.3713625 53.5310164,3.5757375 53.6908525,3.4992375 C53.7047049,3.4918 53.7153607,3.4822375 53.7292131,3.4758625 L61.2457705,16.736925 C59.6090492,17.416925 56.1416721,18.704675 53.366918,18.704675 C51.589541,18.704675 49.5042131,17.95455 47.2974098,17.1608625 M64.7738852,16.673175 L55.901918,1.0214875 C55.4799508,0.2756125 54.5326557,0.0153 53.7878197,0.43605 C53.6865902,0.493425 53.5960164,0.561425 53.5129016,0.6358 C53.1452787,0.514675 52.7339672,0.5253 52.3588852,0.705925 C51.4360984,1.1426125 48.5974098,2.2773625 46.5621639,2.2773625 C45.4358525,2.2773625 44.0538033,1.7801125 42.5897049,1.254175 C40.8751967,0.637925 39.102082,0.000425 37.311918,0.000425 C35.0465082,0.000425 33.2382295,1.2318625 32.1364262,2.2369875 C31.0356885,1.2318625 29.2274098,0.000425 26.962,0.000425 C25.1718361,0.000425 23.3976557,0.637925 21.6831475,1.254175 C20.2201148,1.7801125 18.837,2.2773625 17.7117541,2.2773625 C15.2715902,2.2773625 11.947,0.7197375 11.9139672,0.7048625 C11.7797049,0.6411125 11.6401148,0.6049875 11.5005246,0.582675 C11.4355246,0.52955 11.3683934,0.47855 11.2927377,0.43605 C10.5479016,0.017425 9.59954098,0.276675 9.17863934,1.0214875 L0.305606557,16.673175 C0.23847541,16.792175 0.194786885,16.9164875 0.161754098,17.0418625 C0.158557377,17.0482375 0.154295082,17.05355 0.151098361,17.059925 C-0.217590164,17.8323625 0.111672131,18.7546125 0.885278689,19.121175 C1.11544262,19.2306125 6.58290164,21.798675 11.0359344,21.798675 C13.354623,21.798675 15.796918,20.9199875 18.1582295,20.07105 C20.3671639,19.2763 22.649623,18.45605 24.6081475,18.45605 C28.1426557,18.45605 30.8183115,22.0079875 30.8428197,22.040925 C31.1465082,22.4553 31.6174918,22.6752375 32.0959344,22.6752375 C32.1321639,22.6752375 32.1662623,22.661425 32.2014262,22.6593 C32.2376557,22.661425 32.2717541,22.6752375 32.3079836,22.6752375 C32.7864262,22.6752375 33.2574098,22.4553 33.5610984,22.040925 C33.5888033,22.0048 36.2836393,18.45605 39.7947049,18.45605 C41.7532295,18.45605 44.0356885,19.2763 46.244623,20.07105 C48.6059344,20.9199875 51.0482295,21.798675 53.366918,21.798675 C57.8210164,21.798675 63.2884754,19.2306125 63.5186393,19.121175 C63.6283934,19.0691125 63.7264262,19.0032375 63.8180656,18.9309875 C63.9438033,18.8969875 64.0684754,18.8481125 64.1878197,18.781175 C64.9326557,18.3614875 65.1958525,17.416925 64.7738852,16.673175" id="Fill-3"></path>
                    </g>
                </g>
            </g>
        </g>
    </g>
</svg>